<?xml version="1.0" standalone="no"?>
<!DOCTYPE svg PUBLIC "-//W3C//DTD SVG 1.1//EN" "http://www.w3.org/Graphics/SVG/1.1/DTD/svg11.dtd" >
<svg xmlns="http://www.w3.org/2000/svg">
<metadata></metadata>
<defs>
<font id="yorkwhiteletterregular" horiz-adv-x="662" >
<font-face units-per-em="2048" ascent="1638" descent="-410" />
<missing-glyph horiz-adv-x="678" />
<glyph horiz-adv-x="0" />
<glyph horiz-adv-x="682" />
<glyph unicode=" "  horiz-adv-x="678" />
<glyph unicode="&#x09;" horiz-adv-x="678" />
<glyph unicode="&#xa0;" horiz-adv-x="678" />
<glyph unicode="!" horiz-adv-x="296" d="M-10 0v1640h316v-1640h-316z" />
<glyph unicode="&#x22;" horiz-adv-x="530" d="M-10 0v40h550v-40h-550zM-10 80v1480h550v-1480h-550zM-10 1600v40h550v-40h-550z" />
<glyph unicode="#" horiz-adv-x="690" d="M-10 0v1640h710v-1640h-710zM48 660h142v-140h112v140h88v-140h112v140h140v112h-140v88h140v112h-140v140h-112v-140h-88v140h-112v-140h-142v-112h142v-88h-142v-112zM302 772v88h88v-88h-88z" />
<glyph unicode="$" horiz-adv-x="704" d="M-10 0v40h98v1560h-98v40h350q-7 -10 -19.5 -29t-44.5 -79.5t-56 -124.5t-44 -158.5t-20 -186.5q0 -41 24.5 -74.5t61.5 -43.5q28 55 81.5 89.5t116.5 34.5q93 0 158.5 -65.5t65.5 -158.5t-65.5 -158.5t-158.5 -65.5q-60 0 -111.5 30t-82.5 80q-39 -9 -64.5 -41.5 t-25.5 -74.5q0 -96 19 -194.5t46 -170.5t54 -130.5t46 -88.5l19 -30h-350zM-10 80v1480h54v-1480h-54z" />
<glyph unicode="%" horiz-adv-x="972" d="M-10 0v40h992v-40h-992zM-10 80v1480h992v-1480h-992zM-10 1600v40h992v-40h-992zM44 192q0 -39 27 -56.5t67 -17.5h238l236 362l282 -372l40 236l-218 296l108 182l-108 174l-128 -198l-308 378v172h294l142 172h-612v-392l72 -100q-130 -55 -132 -148v-688zM220 302 v526q0 50 62 60l202 -254l-230 -364h-14q-5 0 -12.5 10t-7.5 22z" />
<glyph unicode="&#x26;" horiz-adv-x="972" d="M-10 0v1640h992v-1640h-992zM44 192q0 -39 27 -56.5t67 -17.5h238l236 362l282 -372l40 236l-218 296l108 182l-108 174l-128 -198l-308 378v172h294l142 172h-612v-392l72 -100q-130 -55 -132 -148v-688zM220 302v526q0 50 62 60l202 -254l-230 -364h-14q-5 0 -12.5 10 t-7.5 22z" />
<glyph unicode="'" horiz-adv-x="530" d="M-10 0v1640h550v-1640h-550z" />
<glyph unicode="(" horiz-adv-x="206" d="M40 0v1640h176v-40h-136v-1560h136v-40h-176zM120 80v1480h96v-1480h-96z" />
<glyph unicode=")" horiz-adv-x="206" d="M-10 0v40h136v1560h-136v40h176v-1640h-176zM-10 80v1480h96v-1480h-96z" />
<glyph unicode="*" horiz-adv-x="846" d="M-10 0v40q220 0 397.5 101.5t278 280t100.5 398.5t-100.5 398.5t-278 280t-397.5 101.5v40q232 0 418.5 -106.5t292 -294t105.5 -419.5t-105.5 -419.5t-292 -294t-418.5 -106.5zM-10 80v1480q209 0 377.5 -96t263.5 -265.5t95 -378.5t-95 -378.5t-263.5 -265.5 t-377.5 -96zM408 820q0 -45 32.5 -77.5t77.5 -32.5t77.5 32.5t32.5 77.5t-32.5 77.5t-77.5 32.5t-77.5 -32.5t-32.5 -77.5z" />
<glyph unicode="+" horiz-adv-x="660" d="M40 838q0 84 21 151.5t52.5 108.5t72 68t75.5 37.5t67 10.5q23 0 37 -8t17 -16l2 -8q-50 0 -85 -35t-35 -85t35 -85t85 -35t85 35t35 85q0 92 -21 185t-51 161t-60 122.5t-51 81.5l-21 28h370v-40h-106v-1560h106v-40h-370q8 11 22 31.5t49 86t62 133.5t49 167.5 t22 195.5q0 50 -35 85t-85 35t-85 -35t-35 -85t35 -85t85 -35q0 -1 -0.5 -3t-3.5 -7.5t-8 -9.5t-16.5 -7t-27.5 -3q-32 0 -68 11t-75.5 39t-71.5 68.5t-52.5 107t-20.5 148.5zM604 80v1480h66v-1480h-66z" />
<glyph unicode="," horiz-adv-x="296" d="M-10 0v40h316v-40h-316zM-10 80v1480h316v-1480h-316zM-10 1600v40h316v-40h-316zM50 120h196v192h-196v-192z" />
<glyph unicode="-" horiz-adv-x="690" d="M-10 0v1640h710v-1640h-710zM48 780h594v192h-594v-192z" />
<glyph unicode="." horiz-adv-x="296" d="M-10 0v1640h316v-1640h-316zM50 120h196v192h-196v-192z" />
<glyph unicode="/" horiz-adv-x="660" d="M-10 0v1640h370q-8 -10 -22 -29t-49 -79.5t-62 -124.5t-49 -158.5t-22 -186.5q0 -50 35 -85t85 -35t85 35t35 85t-35 85t-85 35q0 1 0.5 3.5t4 8t9 9.5t16.5 7.5t26 3.5q32 0 67 -10.5t75.5 -37.5t72 -68t52.5 -108.5t21 -151.5q0 -82 -20.5 -148.5t-52.5 -107 t-71.5 -68.5t-75.5 -39t-68 -11q-16 0 -27.5 3t-16.5 7.5t-8 9t-4 7.5v3q50 0 85 35t35 85t-35 85t-85 35t-85 -35t-35 -85q0 -96 21 -194.5t51 -170.5t60 -130.5t51 -88.5l21 -30h-370z" />
<glyph unicode="0" horiz-adv-x="660" d="M-10 0v1640h680v-1640h-680zM48 238q0 -48 31 -83t77 -35h348q46 0 77 34.5t31 81.5v1166q0 48 -30.5 83t-75.5 35h-350q-46 0 -77 -34.5t-31 -81.5v-1166zM244 360v920q0 16 8 28t22 12h112q14 0 22 -12t8 -28v-920q0 -16 -10 -28t-24 -12h-108q-14 0 -22 12t-8 28z" />
<glyph unicode="1" horiz-adv-x="376" d="M-10 0v1640h396v-1640h-396zM50 1240h80v-1120h196v1400h-140l-5 -17.5t-15.5 -38t-27 -48.5t-38.5 -38.5t-50 -17.5v-120z" />
<glyph unicode="2" d="M-10 0v1640h682v-1640h-682zM50 120h564v376h-196v-136q0 -15 -10.5 -27.5t-25.5 -12.5h-100q-9 0 -18 10t-14 20l-4 10l368 880v164q0 47 -32 81.5t-78 34.5h-346q-45 0 -76.5 -36t-31.5 -84v-244h196v124q0 15 10.5 27.5t25.5 12.5h100q9 0 18 -10t14 -20l4 -10 l-368 -876v-284z" />
<glyph unicode="3" d="M-10 0v1640h682v-1640h-682zM46 240q0 -49 31.5 -84.5t78.5 -35.5h344q46 0 78 35.5t32 82.5v542q0 25 -25 51.5t-50 40.5l-25 14q4 2 11 5t24 13.5t30 21.5t24 27t11 31v420q0 47 -32 81.5t-78 34.5h-346q-46 0 -77 -34.5t-31 -81.5v-204h196v80q0 16 10 28t24 12h106 q14 0 23 -12t9 -28v-296h-180v-204h180v-420q0 -16 -10 -28t-24 -12h-104q-14 0 -24 12t-10 28v288h-196v-408z" />
<glyph unicode="4" horiz-adv-x="714" d="M-10 0v1640h734v-1640h-734zM48 456h352v-336h188v334h80v192h-80v874h-126l-414 -874v-190zM238 646l166 378v-378h-166z" />
<glyph unicode="5" d="M-10 0v1640h682v-1640h-682zM50 238q0 -48 31 -83t77 -35h348q46 0 77 34.5t31 81.5v630q0 48 -31 83t-77 35h-260v336h368v200h-564v-740h336q14 0 23 -12t9 -28v-380q0 -16 -9 -28t-23 -12h-112q-28 0 -28 40v232h-196v-354z" />
<glyph unicode="6" d="M-10 0v1640h682v-1640h-682zM48 236q0 -47 31 -81.5t77 -34.5h344q46 0 79 34.5t33 81.5v618q0 48 -30.5 84t-75.5 36h-262v306q0 17 11 28.5t27 11.5h92q17 0 29.5 -12t12.5 -28v-84h196v208q0 47 -31 81.5t-77 34.5h-348q-46 0 -77 -34.5t-31 -81.5v-1168zM244 360v420 q80 -4 130 -4q17 0 29.5 -12t12.5 -28v-376q0 -16 -12.5 -28t-29.5 -12h-92q-16 0 -27 11.5t-11 28.5z" />
<glyph unicode="7" d="M-10 0v1640h682v-1640h-682zM50 120h216l348 1120v280h-564v-364h196v124q0 15 10.5 27.5t25.5 12.5h100q9 0 18 -10t14 -20l4 -10z" />
<glyph unicode="8" horiz-adv-x="660" d="M-10 0v1640h680v-1640h-680zM48 238q0 -48 31 -83t77 -35h348q46 0 77 34.5t31 81.5v548q0 25 -25 50t-50 38l-25 12q4 2 11 5t24 14t30 22t24 27t11 32v418q0 48 -30.5 83t-75.5 35h-350q-46 0 -77 -34.5t-31 -81.5v-420q0 -25 25 -50t50 -38l25 -12q-4 -2 -11 -5 t-24 -14t-30 -22t-24 -27t-11 -32v-546zM244 360v380q0 16 9 28t23 12h108q14 0 23 -12t9 -28v-380q0 -16 -10 -28t-24 -12h-108q-14 0 -22 12t-8 28zM244 1024v256q0 16 8 28t22 12h112q14 0 22 -12t8 -28v-256q0 -16 -8 -28t-22 -12h-112q-14 0 -22 12t-8 28z" />
<glyph unicode="9" d="M-10 0v1640h682v-1640h-682zM48 236q0 -47 31 -81.5t77 -34.5h348q46 0 77 34.5t31 81.5v1168q0 47 -31 81.5t-77 34.5h-344q-46 0 -79 -34.5t-33 -81.5v-618q0 -48 30.5 -84t75.5 -36h262v-306q0 -17 -11 -28.5t-27 -11.5h-92q-17 0 -29.5 12t-12.5 28v184h-196v-308z M244 904v376q0 16 12.5 28t29.5 12h92q16 0 27 -11.5t11 -28.5v-420q-80 4 -130 4q-17 0 -29.5 12t-12.5 28z" />
<glyph unicode=":" horiz-adv-x="654" d="M40 836l234 234l148 -146q10 18 24 47.5t38 100t24 116.5v292q21 0 42 25t36 55t36 55t42 25v-1640q-25 0 -47 25t-35.5 55t-33 55t-40.5 25v324q0 46 -21.5 112t-42.5 109l-22 43l-148 -146zM134 836l140 -140l142 140l-142 140z" />
<glyph unicode=";" horiz-adv-x="654" d="M-10 0v1640q21 0 42 -25t36 -55t36 -55t42 -25v-292q0 -46 21.5 -112t42.5 -109l22 -43l148 146l234 -234l-234 -234l-148 146q-10 -18 -24 -47.5t-38 -100t-24 -116.5v-324q-21 0 -40.5 -25t-33 -55t-35.5 -55t-47 -25zM238 836l142 -140l140 140l-140 140z" />
<glyph unicode="&#x3c;" horiz-adv-x="206" d="M40 0v1640h176v-1640h-176z" />
<glyph unicode="=" horiz-adv-x="660" d="M-10 0v40h106v1560h-106v40h370q-8 -10 -22 -29t-49 -79.5t-62 -124.5t-49 -158.5t-22 -186.5q0 -50 35 -85t85 -35t85 35t35 85t-35 85t-85 35q0 1 0.5 3.5t4 8t9 9.5t16.5 7.5t26 3.5q32 0 67 -10.5t75.5 -37.5t72 -68t52.5 -108.5t21 -151.5q0 -82 -20.5 -148.5 t-52.5 -107t-71.5 -68.5t-75.5 -39t-68 -11q-16 0 -27.5 3t-16.5 7.5t-8 9t-4 7.5v3q50 0 85 35t35 85t-35 85t-85 35t-85 -35t-35 -85q0 -96 21 -194.5t51 -170.5t60 -130.5t51 -88.5l21 -30h-370zM-10 80v1480h66v-1480h-66z" />
<glyph unicode="&#x3e;" horiz-adv-x="206" d="M-10 0v1640h176v-1640h-176z" />
<glyph unicode="?" horiz-adv-x="660" d="M40 838q0 84 21 151.5t52.5 108.5t72 68t75.5 37.5t67 10.5q23 0 37 -8t17 -16l2 -8q-50 0 -85 -35t-35 -85t35 -85t85 -35t85 35t35 85q0 92 -21 185t-51 161t-60 122.5t-51 81.5l-21 28h370v-1640h-370q8 11 22 31.5t49 86t62 133.5t49 167.5t22 195.5q0 50 -35 85 t-85 35t-85 -35t-35 -85t35 -85t85 -35q0 -1 -0.5 -3t-3.5 -7.5t-8 -9.5t-16.5 -7t-27.5 -3q-32 0 -68 11t-75.5 39t-71.5 68.5t-52.5 107t-20.5 148.5z" />
<glyph unicode="@" horiz-adv-x="972" d="M-10 0v1640h992v-1640h-992zM36 622l138 -60l24 142l152 -68l22 -164l142 -62l-168 1044l-132 58zM42 402l886 -278l-886 398v-120zM222 834l56 310l50 -358zM436 1270l176 -76v-828l140 -62v826l176 -80v142l-492 220v-142z" />
<glyph unicode="A" horiz-adv-x="764" d="M-10 0v1640h784v-1640h-784zM50 120h192l34 220h210l32 -220h196l-232 1400h-186zM310 544l76 484l70 -484h-146z" />
<glyph unicode="B" d="M-10 0v1640h682v-1640h-682zM50 120h456q46 0 77 34.5t31 81.5v532q0 23 -27.5 42.5t-54.5 27.5l-28 8q4 1 11.5 3.5t26.5 10t33.5 16.5t26.5 23t12 29v458q0 54 -29.5 94t-78.5 40h-456v-1400zM246 320v354l76 66q4 -1 10.5 -3t23 -9t29 -15t23 -21t10.5 -26v-306 q0 -16 -9 -28t-23 -12h-140zM246 906v414h138q17 0 25.5 -16t8.5 -36v-230z" />
<glyph unicode="C" d="M-10 0v1640h682v-1640h-682zM46 236q0 -47 31 -81.5t77 -34.5l350 -2q45 0 75.5 36t30.5 84v446h-196v-324q0 -16 -8 -28t-22 -12h-110q-14 0 -23 12t-9 28v920q0 16 9 28t23 12h110q14 0 22 -12t8 -28v-214h196v338q0 47 -31 81.5t-77 34.5h-348q-46 0 -77 -35t-31 -83 v-1166z" />
<glyph unicode="D" d="M-10 0v1640h682v-1640h-682zM50 120h458q46 0 76 34t30 82v1168q0 48 -30 82t-76 34h-458v-1400zM246 320v1000h140q14 0 23 -12t9 -28v-920q0 -16 -9 -28t-23 -12h-140z" />
<glyph unicode="E" d="M-10 0v1640h682v-1640h-682zM52 120h454q47 0 78.5 35.5t31.5 84.5v408h-196v-288q0 -16 -10 -28t-24 -12h-138v520h180v204h-180v276h138q14 0 24 -12t10 -28v-80h196v204q0 47 -31 81.5t-77 34.5h-456v-1400z" />
<glyph unicode="F" d="M-10 0v1640h682v-1640h-682zM52 120h196v720h180v204h-180v276h138q14 0 24 -12t10 -28v-80h196v204q0 47 -31 81.5t-77 34.5h-456v-1400z" />
<glyph unicode="G" d="M-10 0v1640h682v-1640h-682zM48 236q0 -47 31 -81.5t77 -34.5h344q46 0 79 34.5t33 81.5v808h-292v-194l96 -4v-486q0 -16 -12.5 -28t-29.5 -12h-92q-16 0 -27 11.5t-11 28.5v920q0 17 11 28.5t27 11.5h92q17 0 29.5 -12t12.5 -28v-84h196v208q0 47 -31 81.5t-77 34.5 h-348q-46 0 -77 -34.5t-31 -81.5v-1168z" />
<glyph unicode="H" d="M-10 0v1640h682v-1640h-682zM50 120h196v702h172v-702h196v1400h-196v-474h-172v474h-196v-1400z" />
<glyph unicode="I" horiz-adv-x="296" d="M-10 0v1640h316v-1640h-316zM50 120h196v1400h-196v-1400z" />
<glyph unicode="J" d="M-10 0v1640h682v-1640h-682zM50 236q0 -47 31 -81.5t77 -34.5h350q46 0 76 34t30 82v1284h-196v-1160q0 -15 -11.5 -27.5t-26.5 -12.5h-94q-16 0 -28 12t-12 28v130h-196v-254z" />
<glyph unicode="K" horiz-adv-x="726" d="M-10 0v1640h746v-1640h-746zM50 120h196v802l226 -804l210 2l-244 864l244 536h-218l-218 -498v498h-196v-1400z" />
<glyph unicode="L" d="M-10 0v1640h682v-1640h-682zM50 120h564v360h-196v-160h-172v1200h-196v-1400z" />
<glyph unicode="M" horiz-adv-x="852" d="M-10 0v1640h872v-1640h-872zM48 120h188v810l194 -812l180 820v-818h196v1400h-236l-140 -664l-120 664h-262v-1400z" />
<glyph unicode="N" horiz-adv-x="690" d="M-10 0v1640h710v-1640h-710zM50 120h188v858l224 -858h184v1400h-188l-2 -662l-160 662h-246v-1400z" />
<glyph unicode="O" horiz-adv-x="660" d="M-10 0v1640h680v-1640h-680zM48 238q0 -48 31 -83t77 -35h348q46 0 77 34.5t31 81.5v1166q0 48 -30.5 83t-75.5 35h-350q-46 0 -77 -34.5t-31 -81.5v-1166zM244 360v920q0 16 8 28t22 12h112q14 0 22 -12t8 -28v-920q0 -16 -10 -28t-24 -12h-108q-14 0 -22 12t-8 28z" />
<glyph unicode="P" d="M-10 0v1640h682v-1640h-682zM50 120h196v440l368 274v552q0 54 -29.5 94t-78.5 40h-456v-1400zM246 812v508h138q14 0 24 -9.5t10 -22.5v-344z" />
<glyph unicode="Q" horiz-adv-x="660" d="M-10 0v1640h680v-1640h-680zM48 238q0 -48 31 -83t77 -35h280l26 -72h140l-46 128q6 3 15.5 8.5t25 21.5t15.5 30v1166q0 48 -30.5 83t-75.5 35h-350q-46 0 -77 -34.5t-31 -81.5v-1166zM244 360v920q0 16 8 28t22 12h112q14 0 22 -12t8 -28v-872h-86l32 -88h-88 q-14 0 -22 12t-8 28z" />
<glyph unicode="R" horiz-adv-x="686" d="M-10 0v1640h706v-1640h-706zM48 120h196v476l46 38l144 -514h212l-188 626l154 122v536q0 47 -31 81.5t-77 34.5h-456v-1400zM244 808v512h136q15 0 25.5 -12.5t10.5 -27.5v-338z" />
<glyph unicode="S" d="M-10 0v1640h682v-1640h-682zM48 238q0 -48 31 -83t77 -35h350q46 0 76 34t30 82v628l-368 250v166q0 15 10.5 27.5t25.5 12.5h100q15 0 25.5 -12.5t10.5 -27.5v-84h196v204q0 48 -31.5 84t-76.5 36h-346q-46 0 -78 -34.5t-32 -81.5v-384l368 -260v-400q0 -15 -10.5 -27.5 t-25.5 -12.5h-100q-15 0 -25.5 12.5t-10.5 27.5v284h-196v-406z" />
<glyph unicode="T" horiz-adv-x="782" d="M-10 0v1640h802v-1640h-802zM46 1320h246v-1200h196v1200h246v200h-688v-200z" />
<glyph unicode="U" horiz-adv-x="660" d="M-10 0v1640h680v-1640h-680zM48 238q0 -48 31 -83t77 -35h348q46 0 77 34.5t31 81.5v1284h-196v-1160q0 -16 -10 -28t-24 -12h-108q-14 0 -22 12t-8 28v1160h-196v-1282z" />
<glyph unicode="V" horiz-adv-x="712" d="M-10 0v1640h732v-1640h-732zM42 1520l236 -1400h166l228 1400h-202l-112 -726l-102 726h-214z" />
<glyph unicode="W" horiz-adv-x="936" d="M-10 0v1640h956v-1640h-956zM36 1520l200 -1400h134l100 636l76 -636h140l216 1400h-206l-80 -718l-90 718h-122l-74 -716l-84 716h-210z" />
<glyph unicode="X" horiz-adv-x="894" d="M-10 0v1640h914v-1640h-914zM42 120h208l196 544l196 -544h208l-294 800l214 600h-206l-118 -344l-118 344h-206l214 -600z" />
<glyph unicode="Y" horiz-adv-x="734" d="M-10 0v1640h754v-1640h-754zM40 1520l234 -660v-740h182v740l232 660h-186l-138 -432l-138 432h-186z" />
<glyph unicode="Z" d="M-10 0v1640h682v-1640h-682zM50 120h456q46 0 77 35t31 83v258h-196v-136q0 -15 -10.5 -27.5t-25.5 -12.5h-100q-9 0 -18 10t-14 20l-4 10l368 880v164q0 47 -32 81.5t-78 34.5h-454v-364h196v124q0 15 10.5 27.5t25.5 12.5h100q9 0 18 -10t14 -20l4 -10l-368 -876v-284z " />
<glyph unicode="[" horiz-adv-x="1078" d="M40 820l330 302q14 -79 75 -130.5t143 -51.5q92 0 157 65t65 157q0 85 -57 148t-141 72q112 125 224 191.5t252 66.5v-1640q-142 0 -256 68.5t-228 197.5q87 6 146.5 70t59.5 152q0 92 -65 157t-157 65q-84 0 -146.5 -55.5t-73.5 -136.5zM232 820q0 -46 32.5 -78 t79.5 -32q46 0 78 32t32 78t-32 78t-78 32q-47 0 -79.5 -32t-32.5 -78zM810 818q0 -46 32.5 -77t79.5 -31t78.5 31t31.5 77t-32 78t-78 32q-47 0 -79.5 -32t-32.5 -78z" />
<glyph unicode="\" horiz-adv-x="546" d="M-2 0v40h550v-40h-550zM-2 80v1480h550v-1480h-550zM-2 1600v40h550v-40h-550zM142 848q0 -54 38 -92t92 -38t92 38t38 92t-38 92t-92 38t-92 -38t-38 -92z" />
<glyph unicode="]" horiz-adv-x="1082" d="M-10 0l4 1640q140 0 249.5 -66t222.5 -192q-84 -9 -141 -72t-57 -148q0 -92 65 -157t157 -65q82 0 143 51.5t75 130.5l330 -302l-328 -302q-11 81 -73.5 136.5t-146.5 55.5q-92 0 -157 -65t-65 -157q0 -88 59.5 -152t146.5 -70q-114 -129 -228 -197.5t-256 -68.5zM46 818 q0 -46 31.5 -77t78.5 -31t79.5 31t32.5 77t-32.5 78t-79.5 32q-46 0 -78 -32t-32 -78zM624 820q0 -46 32 -78t78 -32q47 0 79.5 32t32.5 78t-32.5 78t-79.5 32q-46 0 -78 -32t-32 -78z" />
<glyph unicode="^" horiz-adv-x="846" d="M40 820q0 232 105.5 419.5t292 294t418.5 106.5v-40q-220 0 -397.5 -101.5t-278 -280t-100.5 -398.5t100.5 -398.5t278 -280t397.5 -101.5v-40q-232 0 -418.5 106.5t-292 294t-105.5 419.5zM120 820q0 209 95 378.5t263.5 265.5t377.5 96v-1480q-209 0 -377.5 96 t-263.5 265.5t-95 378.5zM218 820q0 -45 32.5 -77.5t77.5 -32.5t77.5 32.5t32.5 77.5t-32.5 77.5t-77.5 32.5t-77.5 -32.5t-32.5 -77.5z" />
<glyph unicode="_" horiz-adv-x="706" d="M-2 0v40h710v-40h-710zM-2 80v1480h710v-1480h-710zM-2 1600v40h710v-40h-710zM56 780h594v192h-594v-192z" />
<glyph unicode="`" horiz-adv-x="704" d="M-10 0v1640h350q-7 -10 -19.5 -29t-44.5 -79.5t-56 -124.5t-44 -158.5t-20 -186.5q0 -40 24 -71.5t62 -42.5q27 55 80.5 87.5t117.5 32.5q93 0 158.5 -65.5t65.5 -158.5t-65.5 -158.5t-158.5 -65.5q-60 0 -111.5 30t-82.5 80q-39 -9 -64.5 -41.5t-25.5 -74.5 q0 -96 19 -194.5t46 -170.5t54 -130.5t46 -88.5l19 -30h-350z" />
<glyph unicode="a" horiz-adv-x="764" d="M-10 0v40h784v-40h-784zM-10 80v1480h784v-1480h-784zM-10 1600v40h784v-40h-784zM50 120h192l34 220h210l32 -220h196l-232 1400h-186zM310 544l76 484l70 -484h-146z" />
<glyph unicode="b" d="M-10 0v40h682v-40h-682zM-10 80v1480h682v-1480h-682zM-10 1600v40h682v-40h-682zM50 120h456q46 0 77 34.5t31 81.5v532q0 23 -27.5 42.5t-54.5 27.5l-28 8q4 1 11.5 3.5t26.5 10t33.5 16.5t26.5 23t12 29v458q0 54 -29.5 94t-78.5 40h-456v-1400zM246 320v354l76 66 q4 -1 10.5 -3t23 -9t29 -15t23 -21t10.5 -26v-306q0 -16 -9 -28t-23 -12h-140zM246 906v414h138q17 0 25.5 -16t8.5 -36v-230z" />
<glyph unicode="c" d="M-10 0v40h682v-40h-682zM-10 80v1480h682v-1480h-682zM-10 1600v40h682v-40h-682zM46 236q0 -47 31 -81.5t77 -34.5q68 0 175 -1t175 -1q45 0 75.5 36t30.5 84v446h-196v-324q0 -16 -8 -28t-22 -12h-110q-14 0 -23 12t-9 28v920q0 16 9 28t23 12h110q14 0 22 -12t8 -28 v-234h196v358q0 47 -31 81.5t-77 34.5h-348q-46 0 -77 -35t-31 -83v-1166z" />
<glyph unicode="d" d="M-10 0v40h682v-40h-682zM-10 80v1480h682v-1480h-682zM-10 1600v40h682v-40h-682zM50 120h458q46 0 76 34t30 82v1168q0 48 -30 82t-76 34h-458v-1400zM246 320v1000h140q14 0 23 -12t9 -28v-920q0 -16 -9 -28t-23 -12h-140z" />
<glyph unicode="e" d="M-10 0v40h682v-40h-682zM-10 80v1480h682v-1480h-682zM-10 1600v40h682v-40h-682zM52 120h454q47 0 78.5 35.5t31.5 84.5v408h-196v-288q0 -16 -10 -28t-24 -12h-138v520h180v204h-180v276h138q14 0 24 -12t10 -28v-80h196v204q0 47 -31 81.5t-77 34.5h-456v-1400z" />
<glyph unicode="f" d="M-10 0v40h682v-40h-682zM-10 80v1480h682v-1480h-682zM-10 1600v40h682v-40h-682zM52 120h196v720h180v204h-180v276h138q14 0 24 -12t10 -28v-80h196v204q0 47 -31 81.5t-77 34.5h-456v-1400z" />
<glyph unicode="g" d="M-10 0v40h682v-40h-682zM-10 80v1480h682v-1480h-682zM-10 1600v40h682v-40h-682zM48 236q0 -47 31 -81.5t77 -34.5h344q46 0 79 34.5t33 81.5v808h-292v-194l96 -4v-486q0 -16 -12.5 -28t-29.5 -12h-92q-16 0 -27 11.5t-11 28.5v920q0 17 11 28.5t27 11.5h92 q17 0 29.5 -12t12.5 -28v-84h196v208q0 47 -31 81.5t-77 34.5h-348q-46 0 -77 -34.5t-31 -81.5v-1168z" />
<glyph unicode="h" d="M-10 0v40h682v-40h-682zM-10 80v1480h682v-1480h-682zM-10 1600v40h682v-40h-682zM50 120h196v702h172v-702h196v1400h-196v-474h-172v474h-196v-1400z" />
<glyph unicode="i" horiz-adv-x="296" d="M-10 0v40h316v-40h-316zM-10 80v1480h316v-1480h-316zM-10 1600v40h316v-40h-316zM50 120h196v1400h-196v-1400z" />
<glyph unicode="j" d="M-10 0v40h682v-40h-682zM-10 80v1480h682v-1480h-682zM-10 1600v40h682v-40h-682zM50 236q0 -47 31 -81.5t77 -34.5h350q46 0 76 34t30 82v1284h-196v-1160q0 -15 -11.5 -27.5t-26.5 -12.5h-94q-16 0 -28 12t-12 28v130h-196v-254z" />
<glyph unicode="k" horiz-adv-x="726" d="M-10 0v40h746v-40h-746zM-10 80v1480h746v-1480h-746zM-10 1600v40h746v-40h-746zM50 120h196v742l226 -744l210 2l-244 804l244 596h-218l-218 -558v558h-196v-1400z" />
<glyph unicode="l" d="M-10 0v40h682v-40h-682zM-10 80v1480h682v-1480h-682zM-10 1600v40h682v-40h-682zM50 120h564v360h-196v-160h-172v1200h-196v-1400z" />
<glyph unicode="m" horiz-adv-x="852" d="M-10 0v40h872v-40h-872zM-10 80v1480h872v-1480h-872zM-10 1600v40h872v-40h-872zM48 120h188v810l194 -812l180 820v-818h196v1400h-236l-140 -664l-120 664h-262v-1400z" />
<glyph unicode="n" horiz-adv-x="690" d="M-10 0v40h710v-40h-710zM-10 80v1480h710v-1480h-710zM-10 1600v40h710v-40h-710zM50 120h188v858l224 -858h184v1400h-188l-2 -662l-160 662h-246v-1400z" />
<glyph unicode="o" horiz-adv-x="660" d="M-10 0v40h680v-40h-680zM-10 80v1480h680v-1480h-680zM-10 1600v40h680v-40h-680zM48 238q0 -48 31 -83t77 -35h348q46 0 77 34.5t31 81.5v1166q0 48 -30.5 83t-75.5 35h-350q-46 0 -77 -34.5t-31 -81.5v-1166zM244 360v920q0 16 8 28t22 12h112q14 0 22 -12t8 -28v-920 q0 -16 -10 -28t-24 -12h-108q-14 0 -22 12t-8 28z" />
<glyph unicode="p" d="M-10 0v40h682v-40h-682zM-10 80v1480h682v-1480h-682zM-10 1600v40h682v-40h-682zM50 120h196v440l368 274v552q0 54 -29.5 94t-78.5 40h-456v-1400zM246 812v508h138q14 0 24 -9.5t10 -22.5v-344z" />
<glyph unicode="q" horiz-adv-x="660" d="M-10 0v40h478l-14 32h140l18 -32h58v-40h-680zM-10 80v1480h680v-1480h-78l-36 96q6 3 15.5 8.5t25 21.5t15.5 30v1166q0 48 -30.5 83t-75.5 35h-350q-46 0 -77 -34.5t-31 -81.5v-1166q0 -48 31 -83t77 -35h280l16 -40h-462zM-10 1600v40h680v-40h-680zM244 360v920 q0 16 8 28t22 12h112q14 0 22 -12t8 -28v-872h-86l32 -88h-88q-14 0 -22 12t-8 28z" />
<glyph unicode="r" horiz-adv-x="686" d="M-10 0v40h706v-40h-706zM-10 80v1480h706v-1480h-706zM-10 1600v40h706v-40h-706zM48 120h196v476l46 38l144 -514h212l-188 626l154 122v536q0 47 -31 81.5t-77 34.5h-456v-1400zM244 806v514h136q15 0 25.5 -12.5t10.5 -27.5v-338z" />
<glyph unicode="s" d="M-10 0v40h682v-40h-682zM-10 80v1480h682v-1480h-682zM-10 1600v40h682v-40h-682zM48 238q0 -48 31 -83t77 -35h350q46 0 76 34t30 82v628l-368 250v166q0 15 10.5 27.5t25.5 12.5h100q15 0 25.5 -12.5t10.5 -27.5v-84h196v204q0 48 -31.5 84t-76.5 36h-346 q-46 0 -78 -34.5t-32 -81.5v-384l368 -260v-400q0 -15 -10.5 -27.5t-25.5 -12.5h-100q-15 0 -25.5 12.5t-10.5 27.5v284h-196v-406z" />
<glyph unicode="t" horiz-adv-x="782" d="M-10 0v40h802v-40h-802zM-10 80v1480h802v-1480h-802zM-10 1600v40h802v-40h-802zM46 1320h246v-1200h196v1200h246v200h-688v-200z" />
<glyph unicode="u" d="M-10 0v40h682v-40h-682zM-10 80v1480h680v-1480h-680zM-10 1600v40h682v-40h-682zM48 238q0 -48 31 -83t77 -35h348q46 0 77 34.5t31 81.5v1284h-196v-1160q0 -16 -10 -28t-24 -12h-108q-14 0 -22 12t-8 28v1160h-196v-1282z" />
<glyph unicode="v" horiz-adv-x="712" d="M-10 0v40h732v-40h-732zM-10 80v1480h732v-1480h-732zM-10 1600v40h732v-40h-732zM42 1520l236 -1400h166l228 1400h-202l-112 -726l-102 726h-214z" />
<glyph unicode="w" horiz-adv-x="936" d="M-10 0v40h956v-40h-956zM-10 80v1480h956v-1480h-956zM-10 1600v40h956v-40h-956zM36 1520l200 -1400h134l100 636l76 -636h140l216 1400h-206l-80 -718l-90 718h-122l-74 -716l-84 716h-210z" />
<glyph unicode="x" horiz-adv-x="894" d="M-10 0v40h914v-40h-914zM-10 80v1480h914v-1480h-914zM-10 1600v40h914v-40h-914zM42 120h200l204 552l204 -552h200l-294 800l214 600h-198l-126 -352l-126 352h-198l214 -600z" />
<glyph unicode="y" horiz-adv-x="734" d="M-10 0v40h754v-40h-754zM-10 80v1480h754v-1480h-754zM-10 1600v40h754v-40h-754zM40 1520l234 -660v-740h182v740l232 660h-186l-138 -432l-138 432h-186z" />
<glyph unicode="z" d="M-10 0v40h682v-40h-682zM-10 80v1480h682v-1480h-682zM-10 1600v40h682v-40h-682zM50 120h456q46 0 77 35t31 83v258h-196v-136q0 -15 -10.5 -27.5t-25.5 -12.5h-100q-9 0 -18 10t-14 20l-4 10l368 880v164q0 47 -32 81.5t-78 34.5h-454v-364h196v124q0 15 10.5 27.5 t25.5 12.5h100q9 0 18 -10t14 -20l4 -10l-368 -876v-284z" />
<glyph unicode="{" horiz-adv-x="998" d="M40 820l330 302q14 -79 75 -130.5t143 -51.5q92 0 157 65t65 157q0 85 -57 148t-141 72q193 258 396 258v-40l-136 -40v-1480l136 -40v-40q-207 0 -404 266q87 6 146.5 70t59.5 152q0 92 -65 157t-157 65q-84 0 -146.5 -55.5t-73.5 -136.5zM232 820q0 -46 32.5 -78 t79.5 -32q46 0 78 32t32 78t-32 78t-78 32q-47 0 -79.5 -32t-32.5 -78zM912 110v1420l96 30v-1480z" />
<glyph unicode="|" horiz-adv-x="530" d="M-10 0v1640h550v-1640h-550zM134 848q0 -54 38 -92t92 -38t92 38t38 92t-38 92t-92 38t-92 -38t-38 -92z" />
<glyph unicode="}" horiz-adv-x="998" d="M-10 0v40l136 40v1480l-136 40v40q203 0 396 -258q-84 -9 -141 -72t-57 -148q0 -92 65 -157t157 -65q82 0 143 51.5t75 130.5l330 -302l-328 -302q-11 81 -73.5 136.5t-146.5 55.5q-92 0 -157 -65t-65 -157q0 -88 59.5 -152t146.5 -70q-197 -266 -404 -266zM-10 80v1480 l96 -30v-1420zM544 820q0 -46 32 -78t78 -32q47 0 79.5 32t32.5 78t-32.5 78t-79.5 32q-46 0 -78 -32t-32 -78z" />
<glyph unicode="~" horiz-adv-x="704" d="M40 844q0 93 65.5 158.5t158.5 65.5q64 0 117.5 -32.5t80.5 -87.5q38 11 62 42.5t24 71.5q0 92 -19 185t-46 161t-54 122.5t-46 81.5l-19 28h350v-1640h-350q7 11 19.5 31.5t44.5 86t56 133.5t44 167.5t20 195.5q0 42 -25.5 74.5t-64.5 41.5q-31 -50 -82.5 -80 t-111.5 -30q-93 0 -158.5 65.5t-65.5 158.5z" />
<glyph unicode="&#xa1;" horiz-adv-x="1368" d="M-10 0v1640h1388v-1640h-1388zM54 666q7 -3 17.5 -9t15 -8.5t12 -6t11.5 -5t9.5 -2.5t10.5 -1q11 0 20 6q-15 -21 -8 -48q6 1 17 2t17 2q-6 18 -6 34q0 52 26 84q-29 7 -50.5 30t-31.5 52q-5 -3 -17 -9t-17 -9q9 -23 36 -32q-12 -2 -20.5 -9t-13 -14t-13.5 -26t-15 -31z M128 860q0 -46 24 -84t68 -38q25 0 68.5 30t65.5 30q19 0 40 -18q-6 -37 -29 -51.5t-50.5 -14t-55 0t-45.5 -18.5t-18 -60q0 -28 12 -54t43 -56.5t45 -42t58 -44.5q9 -7 14 -11t26.5 -20t30.5 -22.5t28.5 -20t31.5 -19.5t29 -14t32 -11t30 -3q36 0 67 26.5t31 57.5 q0 18 -11 54t-11 52q0 31 32 54q32 -23 32 -54q0 -16 -11 -52t-11 -54q0 -32 31.5 -58t66.5 -26q15 0 30 3t32 11t29 14t31.5 19.5t28.5 20t30.5 22.5t26.5 20q12 9 45 32t49 36t37.5 36t31 48.5t9.5 55.5q0 40 -18 57t-45.5 18t-55 1.5t-50.5 15.5t-29 52q21 18 40 18 q22 0 65 -30t69 -30q43 0 67.5 38.5t24.5 83.5q0 62 -42 188q-39 120 -64 162q-45 73 -108 74q-35 0 -55.5 -24t-27 -52t-24.5 -52t-49 -24q-14 14 -14 32q0 17 10.5 32.5t25 28t29 26.5t25 35t10.5 48q0 18 -6.5 32t-20.5 23.5t-28.5 17t-38.5 11.5t-41.5 7t-46.5 4t-45 1 h-45q-39 0 -61 -0.5t-60 -3t-60 -8.5t-46 -16t-35.5 -27.5t-11.5 -40.5q0 -32 16 -58t35 -39.5t35 -33t16 -41.5q0 -14 -8 -30q-31 0 -49.5 24t-26 52t-28.5 52t-56 24q-29 0 -54.5 -16t-42 -37t-33 -58t-24.5 -61t-20 -64q-1 -3 -10.5 -34.5t-12.5 -42t-9 -34.5t-8 -42 t-2 -35zM250 1268q29 40 92 40q28 0 40 -6v6q0 54 48 102q-6 0 -13 1t-13 1q-16 -16 -16 -38q-5 9 -10 14.5t-15 8.5t-16 4t-24.5 3.5t-28.5 3.5q-10 -53 -10 -66q0 -20 14 -34q-24 8 -48 -6v-34zM388 882q0 23 13 44.5t35 21.5q13 0 36.5 -15t35.5 -15q14 0 22 8 q-4 23 -22 30t-36.5 4t-34 6t-15.5 36q0 21 17 44t33 35.5t44 32.5q4 3 20.5 15t23.5 16.5t20.5 12.5t24.5 11t21 3q19 0 33.5 -14t14.5 -32q0 -10 -3 -29.5t-3 -28.5q0 -20 16 -28q16 8 16 28q0 9 -5 28.5t-5 29.5q0 18 16 32t36 14q10 0 21 -3t24.5 -11t20.5 -12.5 t23.5 -16.5t20.5 -15q7 -5 24.5 -17t26.5 -19.5t20.5 -19.5t17 -25.5t5.5 -30.5q0 -27 -15.5 -36t-34 -6t-36.5 -4t-22 -30q8 -8 22 -8q12 0 35 15t37 15q21 0 35.5 -21t14.5 -41q0 -28 -26 -102q-2 -5 -6 -18.5t-6.5 -20t-7 -18.5t-8 -18.5t-8.5 -16.5t-10.5 -15 t-12.5 -10.5t-14.5 -8t-16.5 -2.5q-19 0 -30.5 13t-16 28t-14.5 28t-25 13q0 -24 8 -38.5t17 -19t17 -13.5t8 -23q0 -22 -11 -36.5t-32.5 -20t-39.5 -7.5t-43 -2h-40q-25 0 -43 2t-39.5 7.5t-32.5 20t-11 36.5q0 14 8.5 23t18.5 13.5t18.5 19t8.5 38.5q-15 0 -25.5 -13 t-15.5 -28t-17.5 -28t-31.5 -13q-25 0 -45 23.5t-28 45t-19 59.5q-22 70 -22 98zM582 294q1 -4 2 -12t2 -12q27 2 42 24v-8q0 -10 4.5 -19.5t10 -15t19.5 -19t22 -22.5q8 9 22 22.5t19.5 19t10 15t4.5 19.5v8q16 -22 40 -24l6 24q-31 1 -59 17t-43 39q-15 -23 -43 -39 t-59 -17zM586 876q0 -40 29 -69t69 -29t68 28.5t28 69.5q0 40 -28 68t-68 28q-41 0 -69.5 -28t-28.5 -68zM944 1402q42 -42 42 -94v-6q12 6 40 6q53 0 82 -24v18q-15 9 -19.5 9.5t-18.5 -3.5q14 14 14 34q0 13 -10 66q-10 -1 -28.5 -3.5t-24.5 -3.5t-16 -4t-15 -8.5 t-10 -14.5q0 21 -24 42q-3 -3 -6 -7t-6 -7zM1172 714q26 -32 26 -84q0 -16 -6 -34q6 -1 17 -2t17 -2q7 27 -8 48q9 -6 22 -6q7 0 15.5 2.5t14 5.5t21 11.5t23.5 12.5q-6 12 -15 31t-13.5 26t-13 14t-20.5 9q27 9 36 32q-5 3 -17 9t-17 9q-10 -29 -31.5 -52t-50.5 -30z" />
<glyph unicode="&#xa2;" horiz-adv-x="1368" d="M-10 0v1640h1388v-1640h-1388zM54 666q7 -3 17.5 -9t15 -8.5t12 -6t11.5 -5t9.5 -2.5t10.5 -1q11 0 20 6q-15 -21 -8 -48q6 1 17 2t17 2q-6 18 -6 34q0 52 26 84q-29 7 -50.5 30t-31.5 52q-5 -3 -17 -9t-17 -9q9 -23 36 -32q-12 -2 -20.5 -9t-13 -14t-13.5 -26t-15 -31z M128 860q0 -46 24 -84t68 -38q25 0 68.5 30t65.5 30q19 0 40 -18q-6 -37 -29 -51.5t-50.5 -14t-55 0t-45.5 -18.5t-18 -60q0 -28 12 -54t43 -56.5t45 -42t58 -44.5q9 -7 14 -11t26.5 -20t30.5 -22.5t28.5 -20t31.5 -19.5t29 -14t32 -11t30 -3q36 0 67 26.5t31 57.5 q0 18 -11 54t-11 52q0 31 32 54q32 -23 32 -54q0 -16 -11 -52t-11 -54q0 -32 31.5 -58t66.5 -26q15 0 30 3t32 11t29 14t31.5 19.5t28.5 20t30.5 22.5t26.5 20q12 9 45 32t49 36t37.5 36t31 48.5t9.5 55.5q0 40 -18 57t-45.5 18t-55 1.5t-50.5 15.5t-29 52q21 18 40 18 q22 0 65 -30t69 -30q43 0 67.5 38.5t24.5 83.5q0 62 -42 188q-39 120 -64 162q-45 73 -108 74q-35 0 -55.5 -24t-27 -52t-24.5 -52t-49 -24q-14 14 -14 32q0 17 10.5 32.5t25 28t29 26.5t25 35t10.5 48q0 18 -6.5 32t-20.5 23.5t-28.5 17t-38.5 11.5t-41.5 7t-46.5 4t-45 1 h-45q-39 0 -61 -0.5t-60 -3t-60 -8.5t-46 -16t-35.5 -27.5t-11.5 -40.5q0 -32 16 -58t35 -39.5t35 -33t16 -41.5q0 -14 -8 -30q-31 0 -49.5 24t-26 52t-28.5 52t-56 24q-29 0 -54.5 -16t-42 -37t-33 -58t-24.5 -61t-20 -64q-1 -3 -10.5 -34.5t-12.5 -42t-9 -34.5t-8 -42 t-2 -35zM250 1268q29 40 92 40q28 0 40 -6v6q0 54 48 102q-6 0 -13 1t-13 1q-16 -16 -16 -38q-5 9 -10 14.5t-15 8.5t-16 4t-24.5 3.5t-28.5 3.5q-10 -53 -10 -66q0 -20 14 -34q-24 8 -48 -6v-34zM388 882q0 23 13 44.5t35 21.5q13 0 36.5 -15t35.5 -15q14 0 22 8 q-4 23 -22 30t-36.5 4t-34 6t-15.5 36q0 21 17 44t33 35.5t44 32.5q4 3 20.5 15t23.5 16.5t20.5 12.5t24.5 11t21 3q19 0 33.5 -14t14.5 -32q0 -10 -3 -29.5t-3 -28.5q0 -20 16 -28q16 8 16 28q0 9 -5 28.5t-5 29.5q0 18 16 32t36 14q10 0 21 -3t24.5 -11t20.5 -12.5 t23.5 -16.5t20.5 -15q7 -5 24.5 -17t26.5 -19.5t20.5 -19.5t17 -25.5t5.5 -30.5q0 -27 -15.5 -36t-34 -6t-36.5 -4t-22 -30q8 -8 22 -8q12 0 35 15t37 15q21 0 35.5 -21t14.5 -41q0 -28 -26 -102q-2 -5 -6 -18.5t-6.5 -20t-7 -18.5t-8 -18.5t-8.5 -16.5t-10.5 -15 t-12.5 -10.5t-14.5 -8t-16.5 -2.5q-19 0 -30.5 13t-16 28t-14.5 28t-25 13q0 -24 8 -38.5t17 -19t17 -13.5t8 -23q0 -22 -11 -36.5t-32.5 -20t-39.5 -7.5t-43 -2h-40q-25 0 -43 2t-39.5 7.5t-32.5 20t-11 36.5q0 14 8.5 23t18.5 13.5t18.5 19t8.5 38.5q-15 0 -25.5 -13 t-15.5 -28t-17.5 -28t-31.5 -13q-25 0 -45 23.5t-28 45t-19 59.5q-22 70 -22 98zM582 294q1 -4 2 -12t2 -12q27 2 42 24v-8q0 -10 4.5 -19.5t10 -15t19.5 -19t22 -22.5q8 9 22 22.5t19.5 19t10 15t4.5 19.5v8q16 -22 40 -24l6 24q-31 1 -59 17t-43 39q-15 -23 -43 -39 t-59 -17zM586 876q0 -40 29 -69t69 -29t68 28.5t28 69.5q0 40 -28 68t-68 28q-41 0 -69.5 -28t-28.5 -68zM944 1402q42 -42 42 -94v-6q12 6 40 6q53 0 82 -24v18q-15 9 -19.5 9.5t-18.5 -3.5q14 14 14 34q0 13 -10 66q-10 -1 -28.5 -3.5t-24.5 -3.5t-16 -4t-15 -8.5 t-10 -14.5q0 21 -24 42q-3 -3 -6 -7t-6 -7zM1172 714q26 -32 26 -84q0 -16 -6 -34q6 -1 17 -2t17 -2q7 27 -8 48q9 -6 22 -6q7 0 15.5 2.5t14 5.5t21 11.5t23.5 12.5q-6 12 -15 31t-13.5 26t-13 14t-20.5 9q27 9 36 32q-5 3 -17 9t-17 9q-10 -29 -31.5 -52t-50.5 -30z" />
<glyph unicode="&#xa3;" horiz-adv-x="704" d="M40 844q0 93 65.5 158.5t158.5 65.5q63 0 116.5 -34.5t81.5 -89.5q37 10 61.5 43.5t24.5 74.5q0 92 -19 185t-46 161t-54 122.5t-46 81.5l-19 28h350v-40h-94l-4 -1560h98v-40h-350q7 11 19.5 31.5t44.5 86t56 133.5t44 167.5t20 195.5q0 42 -25.5 74.5t-64.5 41.5 q-31 -50 -82.5 -80t-111.5 -30q-93 0 -158.5 65.5t-65.5 158.5zM660 80v1480h54v-1480h-54z" />
<glyph unicode="&#xa4;" horiz-adv-x="1368" d="M-10 0v40h1388v-40h-1388zM-10 80v1480h1388v-1480h-1388zM-10 1600v40h1388v-40h-1388zM54 666q7 -3 17.5 -9t15 -8.5t12 -6t11.5 -5t9.5 -2.5t10.5 -1q11 0 20 6q-15 -21 -8 -48q6 1 17 2t17 2q-6 18 -6 34q0 52 26 84q-29 7 -50.5 30t-31.5 52q-5 -3 -17 -9t-17 -9 q9 -23 36 -32q-12 -2 -20.5 -9t-13 -14t-13.5 -26t-15 -31zM128 860q0 -46 24 -84t68 -38q25 0 68.5 30t65.5 30q19 0 40 -18q-6 -37 -29 -51.5t-50.5 -14t-55 0t-45.5 -18.5t-18 -60q0 -28 12 -54t43 -56.5t45 -42t58 -44.5q9 -7 14 -11t26.5 -20t30.5 -22.5t28.5 -20 t31.5 -19.5t29 -14t32 -11t30 -3q36 0 67 26.5t31 57.5q0 18 -11 54t-11 52q0 31 32 54q32 -23 32 -54q0 -16 -11 -52t-11 -54q0 -32 31.5 -58t66.5 -26q15 0 30 3t32 11t29 14t31.5 19.5t28.5 20t30.5 22.5t26.5 20q12 9 45 32t49 36t37.5 36t31 48.5t9.5 55.5q0 40 -18 57 t-45.5 18t-55 1.5t-50.5 15.5t-29 52q21 18 40 18q22 0 65 -30t69 -30q43 0 67.5 38.5t24.5 83.5q0 62 -42 188q-39 120 -64 162q-45 73 -108 74q-35 0 -55.5 -24t-27 -52t-24.5 -52t-49 -24q-14 14 -14 32q0 17 10.5 32.5t25 28t29 26.5t25 35t10.5 48q0 18 -6.5 32 t-20.5 23.5t-28.5 17t-38.5 11.5t-41.5 7t-46.5 4t-45 1h-45q-39 0 -61 -0.5t-60 -3t-60 -8.5t-46 -16t-35.5 -27.5t-11.5 -40.5q0 -32 16 -58t35 -39.5t35 -33t16 -41.5q0 -14 -8 -30q-31 0 -49.5 24t-26 52t-28.5 52t-56 24q-29 0 -54.5 -16t-42 -37t-33 -58t-24.5 -61 t-20 -64q-1 -3 -10.5 -34.5t-12.5 -42t-9 -34.5t-8 -42t-2 -35zM250 1268q29 40 92 40q28 0 40 -6v6q0 54 48 102q-6 0 -13 1t-13 1q-16 -16 -16 -38q-5 9 -10 14.5t-15 8.5t-16 4t-24.5 3.5t-28.5 3.5q-10 -53 -10 -66q0 -20 14 -34q-24 8 -48 -6v-34zM388 882 q0 23 13 44.5t35 21.5q13 0 36.5 -15t35.5 -15q14 0 22 8q-4 23 -22 30t-36.5 4t-34 6t-15.5 36q0 21 17 44t33 35.5t44 32.5q4 3 20.5 15t23.5 16.5t20.5 12.5t24.5 11t21 3q19 0 33.5 -14t14.5 -32q0 -10 -3 -29.5t-3 -28.5q0 -20 16 -28q16 8 16 28q0 9 -5 28.5t-5 29.5 q0 18 16 32t36 14q10 0 21 -3t24.5 -11t20.5 -12.5t23.5 -16.5t20.5 -15q7 -5 24.5 -17t26.5 -19.5t20.5 -19.5t17 -25.5t5.5 -30.5q0 -27 -15.5 -36t-34 -6t-36.5 -4t-22 -30q8 -8 22 -8q12 0 35 15t37 15q21 0 35.5 -21t14.5 -41q0 -28 -26 -102q-2 -5 -6 -18.5t-6.5 -20 t-7 -18.5t-8 -18.5t-8.5 -16.5t-10.5 -15t-12.5 -10.5t-14.5 -8t-16.5 -2.5q-19 0 -30.5 13t-16 28t-14.5 28t-25 13q0 -24 8 -38.5t17 -19t17 -13.5t8 -23q0 -22 -11 -36.5t-32.5 -20t-39.5 -7.5t-43 -2h-40q-25 0 -43 2t-39.5 7.5t-32.5 20t-11 36.5q0 14 8.5 23 t18.5 13.5t18.5 19t8.5 38.5q-15 0 -25.5 -13t-15.5 -28t-17.5 -28t-31.5 -13q-25 0 -45 23.5t-28 45t-19 59.5q-22 70 -22 98zM582 294q1 -4 2 -12t2 -12q27 2 42 24v-8q0 -10 4.5 -19.5t10 -15t19.5 -19t22 -22.5q8 9 22 22.5t19.5 19t10 15t4.5 19.5v8q16 -22 40 -24 l6 24q-31 1 -59 17t-43 39q-15 -23 -43 -39t-59 -17zM586 876q0 -40 29 -69t69 -29t68 28.5t28 69.5q0 40 -28 68t-68 28q-41 0 -69.5 -28t-28.5 -68zM944 1402q42 -42 42 -94v-6q12 6 40 6q53 0 82 -24v18q-15 9 -19.5 9.5t-18.5 -3.5q14 14 14 34q0 13 -10 66 q-10 -1 -28.5 -3.5t-24.5 -3.5t-16 -4t-15 -8.5t-10 -14.5q0 21 -24 42q-3 -3 -6 -7t-6 -7zM1172 714q26 -32 26 -84q0 -16 -6 -34q6 -1 17 -2t17 -2q7 27 -8 48q9 -6 22 -6q7 0 15.5 2.5t14 5.5t21 11.5t23.5 12.5q-6 12 -15 31t-13.5 26t-13 14t-20.5 9q27 9 36 32 q-5 3 -17 9t-17 9q-10 -29 -31.5 -52t-50.5 -30z" />
<glyph unicode="&#xa5;" horiz-adv-x="720" d="M40 -380v1660q0 72 30.5 129.5t76.5 94t114 64t127.5 41t133.5 21t117 9t91 1.5v-1640q-12 0 -33 -1t-83 -9t-120 -21t-133 -42t-134.5 -67t-111 -100.5t-75.5 -139.5z" />
<glyph unicode="&#xa6;" horiz-adv-x="720" d="M-10 0v1640q12 0 33 1t83 9t120 21t133 42t134.5 67t111 100.5t75.5 139.5v-1660q0 -72 -30.5 -129.5t-76.5 -94t-114 -64t-127.5 -41t-133.5 -21t-117 -9t-91 -1.5z" />
<glyph unicode="&#xa7;" horiz-adv-x="690" d="M-10 0v40h710v-40h-710zM-10 80v1480h710v-1480h-710zM-10 1600v40h710v-40h-710zM48 660h142v-140h112v140h88v-140h112v140h140v112h-140v88h140v112h-140v140h-112v-140h-88v140h-112v-140h-142v-112h142v-88h-142v-112zM302 772v88h88v-88h-88z" />
<glyph unicode="&#xa8;" horiz-adv-x="296" d="M-10 0v1640h316v-1640h-316z" />
<glyph unicode="&#xa9;" horiz-adv-x="846" d="M40 820q0 232 105.5 419.5t292 294t418.5 106.5v-1640q-232 0 -418.5 106.5t-292 294t-105.5 419.5zM218 820q0 -45 32.5 -77.5t77.5 -32.5t77.5 32.5t32.5 77.5t-32.5 77.5t-77.5 32.5t-77.5 -32.5t-32.5 -77.5z" />
<glyph unicode="&#xaa;" horiz-adv-x="846" d="M-10 0v1640q232 0 418.5 -106.5t292 -294t105.5 -419.5t-105.5 -419.5t-292 -294t-418.5 -106.5zM408 820q0 -45 32.5 -77.5t77.5 -32.5t77.5 32.5t32.5 77.5t-32.5 77.5t-77.5 32.5t-77.5 -32.5t-32.5 -77.5z" />
<glyph unicode="&#xab;" horiz-adv-x="704" d="M40 836l234 234l148 -146q10 15 24 41.5t38 96.5t24 126v292q36 0 61 25t37 55t37 55t61 25v-40q-21 0 -40.5 -22t-32 -48t-29 -48t-32.5 -22v-1280q16 0 32.5 -22t29 -48t32 -48t40.5 -22v-40q-36 0 -61 25t-37 55t-37 55t-61 25v324q0 56 -21.5 122t-42.5 104l-22 38 l-148 -146zM134 836l140 -140l142 140l-142 140zM610 192v1256q11 0 25.5 28t32 56t36.5 28v-1480q-19 0 -36.5 28t-32 56t-25.5 28z" />
<glyph unicode="&#xac;" horiz-adv-x="768" d="M20 820q0 99 70.5 171t169.5 73v124h60q0 100 70.5 171t171.5 73v208h216v-1640h-216v218q-99 2 -169.5 72.5t-72.5 169.5h-60v116q-99 1 -169.5 73t-70.5 171z" />
<glyph unicode="&#xad;" horiz-adv-x="690" d="M-10 0v1640h710v-1640h-710zM48 780h594v192h-594v-192z" />
<glyph unicode="&#xae;" horiz-adv-x="788" d="M-10 0v1640h216v-208q101 -2 171.5 -73t70.5 -171h60v-124q99 -1 169.5 -73t70.5 -171t-70.5 -171t-169.5 -73v-116h-60q-2 -99 -72.5 -169.5t-169.5 -72.5v-218h-216z" />
<glyph unicode="&#xaf;" horiz-adv-x="296" d="M-10 0v1640h316v-1640h-316z" />
<glyph unicode="&#xb0;" horiz-adv-x="296" d="M-10 0v40h316v-40h-316zM-10 80v1480h316v-1480h-316zM-10 1600v40h316v-40h-316z" />
<glyph unicode="&#xb1;" horiz-adv-x="972" d="M-10 0v40h992v-40h-992zM-10 80v1480h992v-1480h-992zM-10 1600v40h992v-40h-992zM36 622l138 -60l24 142l152 -68l22 -164l142 -62l-168 1044l-132 58zM42 402l886 -278l-886 398v-120zM222 834l56 310l50 -358zM436 1270l176 -76v-828l140 -62v826l176 -80v142 l-492 220v-142z" />
<glyph unicode="&#xb2;" horiz-adv-x="1368" d="M-10 0v1640h1388v-1640h-1388zM62 824l266 -262l262 262l-262 262zM420 470l262 -266l262 266l-262 262zM420 1178l262 -262l262 262l-262 266zM774 824l262 -262l266 262l-266 262z" />
<glyph unicode="&#xb3;" horiz-adv-x="1368" d="M-10 0v40h1388v-40h-1388zM-10 80v1480h1388v-1480h-1388zM-10 1600v40h1388v-40h-1388zM62 824l266 -262l262 262l-262 262zM420 470l262 -266l262 266l-262 262zM420 1178l262 -262l262 262l-262 266zM774 824l262 -262l266 262l-266 262z" />
<glyph unicode="&#xb4;" horiz-adv-x="884" d="M-10 0v1640h904v-1640h-904zM40 824l172 -262l170 262l-170 262zM272 470l170 -266l170 266l-170 262zM272 1178l170 -262l170 262l-170 266zM502 824l170 -262l172 262l-172 262z" />
<glyph unicode="&#xb5;" horiz-adv-x="884" d="M-10 0v40h904v-40h-904zM-10 80v1480h904v-1480h-904zM-10 1600v40h904v-40h-904zM40 824l172 -262l170 262l-170 262zM272 470l170 -266l170 266l-170 262zM272 1178l170 -262l170 262l-170 266zM502 824l170 -262l172 262l-172 262z" />
<glyph unicode="&#xb6;" horiz-adv-x="1248" d="M-10 0v1640h1268v-1640h-1268zM36 818q0 -78 55 -133t133 -55t133 55t55 133t-55 133t-133 55t-133 -55t-55 -133zM436 418q0 -78 55 -133t133 -55t133 55t55 133t-55 133t-133 55t-133 -55t-55 -133zM436 1218q0 -78 55 -133t133 -55t133 55t55 133t-55 133t-133 55 t-133 -55t-55 -133zM836 818q0 -78 55 -133t133 -55t133 55t55 133t-55 133t-133 55t-133 -55t-55 -133z" />
<glyph unicode="&#xb7;" horiz-adv-x="1248" d="M-10 0v40h1268v-40h-1268zM-10 80v1480h1268v-1480h-1268zM-10 1600v40h1268v-40h-1268zM36 818q0 -78 55 -133t133 -55t133 55t55 133t-55 133t-133 55t-133 -55t-55 -133zM436 418q0 -78 55 -133t133 -55t133 55t55 133t-55 133t-133 55t-133 -55t-55 -133zM436 1218 q0 -78 55 -133t133 -55t133 55t55 133t-55 133t-133 55t-133 -55t-55 -133zM836 818q0 -78 55 -133t133 -55t133 55t55 133t-55 133t-133 55t-133 -55t-55 -133z" />
<glyph unicode="&#xb8;" horiz-adv-x="296" d="M-10 0v1640h316v-1640h-316z" />
<glyph unicode="&#xb9;" horiz-adv-x="296" d="M-10 0v40h316v-40h-316zM-10 80v1480h316v-1480h-316zM-10 1600v40h316v-40h-316z" />
<glyph unicode="&#xba;" horiz-adv-x="296" d="M-10 0v40h316v-40h-316zM-10 80v1480h316v-1480h-316zM-10 1600v40h316v-40h-316z" />
<glyph unicode="&#xbb;" horiz-adv-x="704" d="M0 0v40q21 0 40.5 22t32 48t29 48t32.5 22v1280q-16 0 -32.5 22t-29 48t-32 48t-40.5 22v40q36 0 61 -25t37 -55t37 -55t61 -25v-292q0 -56 21.5 -122t42.5 -104l22 -38l148 146l234 -234l-234 -234l-148 146q-10 -15 -24 -41.5t-38 -96.5t-24 -126v-324q-36 0 -61 -25 t-37 -55t-37 -55t-61 -25zM0 80v1480q19 0 36.5 -28t32 -56t25.5 -28v-1256q-11 0 -25.5 -28t-32 -56t-36.5 -28zM288 836l142 -140l140 140l-140 140z" />
<glyph unicode="&#xbc;" horiz-adv-x="720" d="M40 -380v1660q0 72 30.5 129.5t76.5 94t114 64t127.5 41t133.5 21t117 9t91 1.5v-40q-654 0 -654 -352v-1478q27 55 77.5 99.5t110 72t125 48t126 29.5t109 14.5t77.5 6.5h29v-40q-25 0 -56.5 -1.5t-93.5 -10t-119.5 -22.5t-126.5 -43t-123.5 -67.5t-101.5 -99.5 t-69 -136zM108 -132v1352q0 69 27.5 124t68.5 89.5t103 60t115 38t121 19.5t104.5 8t82.5 1v-1480q-21 -1 -56 -3t-129 -15.5t-171.5 -34t-156 -62.5t-109.5 -97z" />
<glyph unicode="&#xbd;" horiz-adv-x="720" d="M-10 0v40q654 0 654 352v1478q-27 -55 -77.5 -99.5t-110 -72t-125 -48t-126 -29.5t-109 -14.5t-77.5 -6.5h-29v40q25 0 56.5 1.5t93.5 10t119.5 22.5t126.5 43t123.5 67.5t101.5 99.5t69 136v-1660q0 -72 -30.5 -129.5t-76.5 -94t-114 -64t-127.5 -41t-133.5 -21t-117 -9 t-91 -1.5zM-10 80v1480q21 1 56 3t129 15.5t171.5 34t156 62.5t109.5 97v-1352q0 -69 -27.5 -124t-68.5 -89.5t-103 -60t-115 -38t-121 -19.5t-104.5 -8t-82.5 -1z" />
<glyph unicode="&#xbe;" horiz-adv-x="720" d="M-10 0v40q11 0 30 -0.5t76 -6t110.5 -14.5t124 -29.5t127 -48t108 -72t78.5 -99.5v1478q0 352 -654 352v40q48 0 91 -1.5t117 -9t133.5 -21t127.5 -41t114 -64t76.5 -94t30.5 -129.5v-1660q-22 75 -69 136t-101.5 99.5t-123.5 67.5t-126.5 43t-119.5 22.5t-93.5 10 t-56.5 1.5zM-10 80v1480q46 0 82.5 -1t104.5 -8t121 -19.5t115 -38t103 -60t68.5 -89.5t27.5 -124v-1352q-31 55 -107 97t-161.5 62.5t-166.5 33.5t-134 16z" />
<glyph unicode="&#xbf;" horiz-adv-x="720" d="M40 360v1660q22 -75 69 -136t101.5 -99.5t123.5 -67.5t126.5 -43t119.5 -22.5t93.5 -10t56.5 -1.5v-40q-11 0 -30 0.5t-76 6t-110.5 14.5t-124 29.5t-127 48t-108 72t-78.5 99.5v-1478q0 -352 654 -352v-40q-48 0 -91 1.5t-117 9t-133.5 21t-127.5 41t-114 64t-76.5 94 t-30.5 129.5zM108 420v1352q31 -55 107 -97t161.5 -62.5t166.5 -33.5t134 -16l53 -3v-1480q-46 0 -82.5 1t-104.5 8t-121 19.5t-115 38t-103 60t-68.5 89.5t-27.5 124z" />
<glyph unicode="&#xc0;" horiz-adv-x="1938" d="M40 -412l368 630l-368 596h912v-860q246 -44 503 -141.5t459 -224.5h-1874zM1012 0v1640h936v-1640h-34q18 -10 30 -20q-4 2 -12.5 7.5t-15.5 9t-12 3.5h-68q46 -20 106 -72q-80 48 -122 72h-64q115 -49 186 -110q-91 55 -204 110h-62q161 -70 268 -154q-166 95 -296 154 h-58q224 -90 352 -194q-232 130 -392 194h-52q282 -121 440 -234q-290 160 -498 234h-44q348 -135 538 -274q-346 189 -616 274h-36q405 -141 650 -316q-402 223 -758 316h-20q483 -143 774 -356q-461 257 -916 356zM1204 1168q0 -27 17.5 -45.5t44.5 -18.5q34 0 52 24h126 q-8 -186 -8 -306q0 -106 4.5 -258t9.5 -251l4 -99l28 -72l32 72q18 370 18 608q0 53 -2.5 129.5t-5.5 126.5l-2 50h126q18 -24 50 -24q27 0 45.5 18.5t18.5 45.5t-18.5 45.5t-45.5 18.5q-31 0 -50 -26h-126v206q24 18 24 52q0 27 -17.5 45.5t-44.5 18.5t-45.5 -18.5 t-18.5 -45.5q0 -34 24 -52v-206h-126q-20 26 -52 26q-27 0 -44.5 -18.5t-17.5 -45.5z" />
<glyph unicode="&#xc1;" horiz-adv-x="1938" d="M-10 0v1640h936v-1640q-455 -99 -916 -356q291 213 774 356h-20q-356 -93 -758 -316q245 175 650 316h-36q-270 -85 -616 -274q190 139 538 274h-48q-197 -70 -494 -234q158 113 440 234h-52q-160 -64 -392 -194q128 104 352 194h-58q-149 -67 -300 -154q102 80 272 154 h-62q-113 -55 -204 -110q71 61 186 110h-64q-42 -24 -122 -72q60 52 106 72h-68q-5 0 -13 -3.5t-18 -9.5t-13 -7l34 20h-34zM24 -412q202 127 459 224.5t503 141.5v860h912l-368 -596l368 -630h-1874zM176 1168q0 -27 18.5 -45.5t45.5 -18.5q32 0 50 24h126 q-10 -186 -10 -306q0 -106 4.5 -258t9.5 -251l4 -99l32 -72l28 72q18 370 18 608l-8 306h126q18 -24 52 -24q27 0 44.5 18.5t17.5 45.5t-17.5 45.5t-44.5 18.5q-32 0 -52 -26h-126v206q24 18 24 52q0 27 -18.5 45.5t-45.5 18.5t-44.5 -18.5t-17.5 -45.5q0 -34 24 -52v-206 h-126q-20 26 -50 26q-27 0 -45.5 -18.5t-18.5 -45.5z" />
<glyph unicode="&#xc2;" horiz-adv-x="1938" d="M40 826l368 596l-368 630h1874q-202 -127 -459 -224.5t-503 -141.5v-860h-912zM1012 0v1640q455 99 916 356q-291 -213 -774 -356h20q356 93 758 316q-245 -175 -650 -316h36q270 85 616 274q-190 -139 -538 -274h48q197 70 494 234q-158 -113 -440 -234h52 q160 64 392 194q-128 -104 -352 -194h58q149 67 300 154q-102 -80 -272 -154h62q113 55 204 110q-71 -61 -186 -110h64q42 24 122 72q-60 -52 -106 -72h68q5 0 13 3.5t18 9.5t13 7l-34 -20h34v-1640h-936zM1204 1138q0 -27 18.5 -45.5t45.5 -18.5q32 0 50 24h126 q-10 -186 -10 -306q0 -106 4.5 -258t9.5 -251l4 -99l32 -72l28 72q18 370 18 608l-8 306h126q18 -24 52 -24q27 0 44.5 18.5t17.5 45.5t-17.5 45.5t-44.5 18.5q-33 0 -52 -26h-126v206q24 18 24 52q0 27 -18.5 45.5t-45.5 18.5t-44.5 -18.5t-17.5 -45.5q0 -34 24 -52v-206 h-126q-20 26 -50 26q-27 0 -45.5 -18.5t-18.5 -45.5z" />
<glyph unicode="&#xc3;" horiz-adv-x="1938" d="M-10 0v1640h34q-22 10 -34 20q3 -1 13 -7t18 -9.5t13 -3.5h68q-46 20 -106 72q80 -48 122 -72h64q-115 49 -186 110q91 -55 204 -110h62q-170 74 -272 154q151 -87 300 -154h58q-224 90 -352 194q232 -130 392 -194h52q-282 121 -440 234q297 -164 494 -234h48 q-348 135 -538 274q346 -189 616 -274h36q-405 141 -650 316q402 -223 758 -316h20q-483 143 -774 356q461 -257 916 -356v-1640h-936zM24 2052h1874l-368 -630l368 -596h-912v860q-246 44 -503 141.5t-459 224.5zM176 1138q0 -27 17.5 -45.5t44.5 -18.5q34 0 52 24h126 q-8 -186 -8 -306q0 -106 4.5 -258t9.5 -251l4 -99l28 -72l32 72q18 370 18 608q0 53 -2.5 129.5t-5.5 126.5l-2 50h126q18 -24 50 -24q27 0 45.5 18.5t18.5 45.5t-18.5 45.5t-45.5 18.5q-30 0 -50 -26h-126v206q24 18 24 52q0 27 -17.5 45.5t-44.5 18.5t-45.5 -18.5 t-18.5 -45.5q0 -34 24 -52v-206h-126q-20 26 -52 26q-27 0 -44.5 -18.5t-17.5 -45.5z" />
<glyph unicode="&#xc4;" horiz-adv-x="1938" d="M40 -412l368 630l-368 596h912v-860q246 -44 503 -141.5t459 -224.5h-1874zM1012 0v1640h936v-40h-896v-1560h896v-40h-34q18 -10 30 -20q-4 2 -12.5 7.5t-15.5 9t-12 3.5h-68q46 -20 106 -72q-80 48 -122 72h-64q115 -49 186 -110q-91 55 -204 110h-62q161 -70 268 -154 q-166 95 -296 154h-58q224 -90 352 -194q-232 130 -392 194h-52q282 -121 440 -234q-290 160 -498 234h-44q348 -135 538 -274q-346 189 -616 274h-36q405 -141 650 -316q-402 223 -758 316h-20q483 -143 774 -356q-461 257 -916 356zM1092 80v1480h856v-1480h-856z M1204 1168q0 -27 17.5 -45.5t44.5 -18.5q34 0 52 24h126q-8 -186 -8 -306q0 -106 4.5 -258t9.5 -251l4 -99l28 -72l32 72q18 370 18 608q0 53 -2.5 129.5t-5.5 126.5l-2 50h126q18 -24 50 -24q27 0 45.5 18.5t18.5 45.5t-18.5 45.5t-45.5 18.5q-31 0 -50 -26h-126v206 q24 18 24 52q0 27 -17.5 45.5t-44.5 18.5t-45.5 -18.5t-18.5 -45.5q0 -34 24 -52v-206h-126q-20 26 -52 26q-27 0 -44.5 -18.5t-17.5 -45.5z" />
<glyph unicode="&#xc5;" horiz-adv-x="1938" d="M-10 0v40h896v1560h-896v40h936v-1640q-455 -99 -916 -356q291 213 774 356h-20q-356 -93 -758 -316q245 175 650 316h-36q-270 -85 -616 -274q190 139 538 274h-48q-197 -70 -494 -234q158 113 440 234h-52q-160 -64 -392 -194q128 104 352 194h-58q-149 -67 -300 -154 q102 80 272 154h-62q-113 -55 -204 -110q71 61 186 110h-64q-42 -24 -122 -72q60 52 106 72h-68q-5 0 -13 -3.5t-18 -9.5t-13 -7l34 20h-34zM-10 80v1480h856v-1480h-856zM24 -412q202 127 459 224.5t503 141.5v860h912l-368 -596l368 -630h-1874zM176 1168 q0 -27 18.5 -45.5t45.5 -18.5q32 0 50 24h126q-10 -186 -10 -306q0 -106 4.5 -258t9.5 -251l4 -99l32 -72l28 72q18 370 18 608l-8 306h126q18 -24 52 -24q27 0 44.5 18.5t17.5 45.5t-17.5 45.5t-44.5 18.5q-32 0 -52 -26h-126v206q24 18 24 52q0 27 -18.5 45.5t-45.5 18.5 t-44.5 -18.5t-17.5 -45.5q0 -34 24 -52v-206h-126q-20 26 -50 26q-27 0 -45.5 -18.5t-18.5 -45.5z" />
<glyph unicode="&#xc6;" horiz-adv-x="1938" d="M40 826l368 596l-368 630h1874q-202 -127 -459 -224.5t-503 -141.5v-860h-912zM1012 0v1640q455 99 916 356q-291 -213 -774 -356h20q356 93 758 316q-245 -175 -650 -316h36q270 85 616 274q-190 -139 -538 -274h48q197 70 494 234q-158 -113 -440 -234h52 q160 64 392 194q-128 -104 -352 -194h58q149 67 300 154q-102 -80 -272 -154h62q113 55 204 110q-71 -61 -186 -110h64q42 24 122 72q-60 -52 -106 -72h68q5 0 13 3.5t18 9.5t13 7l-34 -20h34v-40h-896v-1560h896v-40h-936zM1092 80v1480h856v-1480h-856zM1204 1138 q0 -27 18.5 -45.5t45.5 -18.5q32 0 50 24h126q-10 -186 -10 -306q0 -106 4.5 -258t9.5 -251l4 -99l32 -72l28 72q18 370 18 608l-8 306h126q18 -24 52 -24q27 0 44.5 18.5t17.5 45.5t-17.5 45.5t-44.5 18.5q-33 0 -52 -26h-126v206q24 18 24 52q0 27 -18.5 45.5t-45.5 18.5 t-44.5 -18.5t-17.5 -45.5q0 -34 24 -52v-206h-126q-20 26 -50 26q-27 0 -45.5 -18.5t-18.5 -45.5z" />
<glyph unicode="&#xc7;" horiz-adv-x="1938" d="M-10 0v40h896v1560h-896v40h34q-22 10 -34 20q3 -1 13 -7t18 -9.5t13 -3.5h68q-46 20 -106 72q80 -48 122 -72h64q-115 49 -186 110q91 -55 204 -110h62q-170 74 -272 154q151 -87 300 -154h58q-224 90 -352 194q232 -130 392 -194h52q-282 121 -440 234 q297 -164 494 -234h48q-348 135 -538 274q346 -189 616 -274h36q-405 141 -650 316q402 -223 758 -316h20q-483 143 -774 356q461 -257 916 -356v-1640h-936zM-10 80v1480h856v-1480h-856zM24 2052h1874l-368 -630l368 -596h-912v860q-246 44 -503 141.5t-459 224.5z M176 1138q0 -27 17.5 -45.5t44.5 -18.5q34 0 52 24h126q-8 -186 -8 -306q0 -106 4.5 -258t9.5 -251l4 -99l28 -72l32 72q18 370 18 608q0 53 -2.5 129.5t-5.5 126.5l-2 50h126q18 -24 50 -24q27 0 45.5 18.5t18.5 45.5t-18.5 45.5t-45.5 18.5q-30 0 -50 -26h-126v206 q24 18 24 52q0 27 -17.5 45.5t-44.5 18.5t-45.5 -18.5t-18.5 -45.5q0 -34 24 -52v-206h-126q-20 26 -52 26q-27 0 -44.5 -18.5t-17.5 -45.5z" />
<glyph unicode="&#xc8;" horiz-adv-x="632" d="M-10 0v1640h652v-1640h-652zM36 1138q0 -27 17.5 -45.5t44.5 -18.5q34 0 52 24h126q-8 -186 -8 -306q0 -106 4.5 -258t9.5 -251l4 -99l28 -72l32 72q18 370 18 608q0 53 -2.5 129.5t-5.5 126.5l-2 50h126q18 -24 50 -24q27 0 45.5 18.5t18.5 45.5t-18.5 45.5t-45.5 18.5 q-30 0 -50 -26h-126v206q24 18 24 52q0 27 -17.5 45.5t-44.5 18.5t-45.5 -18.5t-18.5 -45.5q0 -34 24 -52v-206h-126q-20 26 -52 26q-27 0 -44.5 -18.5t-17.5 -45.5z" />
<glyph unicode="&#xc9;" horiz-adv-x="632" d="M-10 0v40h652v-40h-652zM-10 80v1480h652v-1480h-652zM-10 1600v40h652v-40h-652zM36 1138q0 -27 17.5 -45.5t44.5 -18.5q34 0 52 24h126q-8 -186 -8 -306q0 -106 4.5 -258t9.5 -251l4 -99l28 -72l32 72q18 370 18 608q0 53 -2.5 129.5t-5.5 126.5l-2 50h126 q18 -24 50 -24q27 0 45.5 18.5t18.5 45.5t-18.5 45.5t-45.5 18.5q-30 0 -50 -26h-126v206q24 18 24 52q0 27 -17.5 45.5t-44.5 18.5t-45.5 -18.5t-18.5 -45.5q0 -34 24 -52v-206h-126q-20 26 -52 26q-27 0 -44.5 -18.5t-17.5 -45.5z" />
<glyph unicode="&#xca;" horiz-adv-x="1564" d="M-10 0v1640h590q-100 -72 -228.5 -127t-253.5 -81v-1432h-108zM158 -234v1640h48q158 61 402 194q-128 -104 -352 -194h58q149 67 300 154q-100 -80 -266 -154h56q113 55 204 110q-68 -61 -180 -110h58q42 24 122 72q-56 -52 -100 -72h62q5 0 13 3.5t18 9.5t13 7l-18 -20 h372q-12 10 -18 20q3 -1 13 -7t18 -9.5t13 -3.5h62q-44 20 -100 72q80 -48 122 -72h58q-112 49 -180 110q91 -55 204 -110h56q-166 74 -266 154q151 -87 300 -154h58q-224 90 -352 194q244 -133 402 -194h48v-1640h-1248zM352 -42q0 -39 27 -56.5t67 -17.5h238l236 362 l282 -372l40 236l-218 296l108 182l-108 174l-128 -198l-308 378v172h294l142 172h-612v-392l72 -100q-130 -55 -132 -148v-688zM528 68v526q0 50 62 60l202 -254l-230 -364h-14q-5 0 -12.5 10t-7.5 22zM984 1640h590v-1640h-108v1432q-125 26 -253.5 81t-228.5 127z" />
<glyph unicode="&#xcb;" horiz-adv-x="1564" d="M-10 0v40h108v-40h-108zM-10 80v1480h450q-153 -95 -342 -128v-1352h-108zM-10 1600v40h610l-80 -40h-530zM158 -234v1640h58q160 64 392 194q-128 -104 -352 -194h58q149 67 300 154q-102 -80 -272 -154h62q113 55 204 110q-71 -61 -186 -110h64q42 24 122 72 q-60 -52 -106 -72h68q5 0 13 3.5t18 9.5t13 7l-24 -20h384q-16 10 -24 20q3 -1 13 -7t18 -9.5t13 -3.5h68q-46 20 -106 72q80 -48 122 -72h64q-115 49 -186 110q91 -55 204 -110h62q-170 74 -272 154q151 -87 300 -154h58q-224 90 -352 194q232 -130 392 -194h58v-1640 h-1248zM198 -194h1168v1560h-1168v-1560zM238 -154v1480h1088v-1480h-1088zM352 -42q0 -39 27 -56.5t67 -17.5h238l236 362l282 -372l40 236l-218 296l108 182l-108 174l-128 -198l-308 378v172h294l142 172h-612v-392l72 -100q-130 -55 -132 -148v-688zM528 68v526 q0 50 62 60l202 -254l-230 -364h-14q-5 0 -12.5 10t-7.5 22zM964 1640h610v-40h-530zM1124 1560h450v-1480h-108v1352q-189 33 -342 128zM1466 0v40h108v-40h-108z" />
<glyph unicode="&#xcc;" horiz-adv-x="1146" d="M40 -412l368 630l-368 596h912v-860q246 -44 503 -141.5t459 -224.5h-1874zM1012 0v1640h144v-1640q479 -142 772 -356q-461 257 -916 356zM1174 0h108q405 -141 650 -316q-402 223 -758 316zM1318 0h78q348 -135 538 -274q-346 189 -616 274zM1440 0h58 q282 -121 440 -234q-290 160 -498 234zM1550 0h40q224 -90 352 -194q-232 130 -392 194zM1648 0h28q161 -70 268 -154q-166 95 -296 154zM1738 0h18q115 -49 186 -110q-91 55 -204 110zM1820 0h16q46 -20 106 -72q-80 48 -122 72zM1904 0h10q18 -10 30 -20z" />
<glyph unicode="&#xcd;" horiz-adv-x="1136" d="M-808 -20l30 20h10zM-808 -154q107 84 268 154h28q-130 -59 -296 -154zM-806 -72q60 52 106 72h16q-42 -24 -122 -72zM-806 -110q71 61 186 110h18q-113 -55 -204 -110zM-806 -194q128 104 352 194h40q-160 -64 -392 -194zM-802 -234q158 113 440 234h58 q-208 -74 -498 -234zM-798 -274q190 139 538 274h78q-270 -85 -616 -274zM-796 -316q245 175 650 316h108q-356 -93 -758 -316zM-792 -356q293 214 772 356v1640h144v-1640q-455 -99 -916 -356zM-778 -412q202 127 459 224.5t503 141.5v860h912l-368 -596l368 -630h-1874z " />
<glyph unicode="&#xce;" horiz-adv-x="1146" d="M40 -412l368 630l-368 596h912v-860q246 -44 503 -141.5t459 -224.5h-1874zM1012 0v1640h144v-40h-102v-1560h102v-40q479 -142 772 -356q-461 257 -916 356zM1094 80v1480h62v-1480h-62zM1174 0h108q405 -141 650 -316q-402 223 -758 316zM1318 0h78q348 -135 538 -274 q-346 189 -616 274zM1440 0h58q282 -121 440 -234q-290 160 -498 234zM1550 0h40q224 -90 352 -194q-232 130 -392 194zM1648 0h28q161 -70 268 -154q-166 95 -296 154zM1738 0h18q115 -49 186 -110q-91 55 -204 110zM1820 0h16q46 -20 106 -72q-80 48 -122 72zM1904 0h10 q18 -10 30 -20z" />
<glyph unicode="&#xcf;" horiz-adv-x="1146" d="M-798 -20l30 20h10zM-798 -154q107 84 268 154h28q-130 -59 -296 -154zM-796 -72q60 52 106 72h16q-42 -24 -122 -72zM-796 -110q71 61 186 110h18q-113 -55 -204 -110zM-796 -194q128 104 352 194h40q-160 -64 -392 -194zM-792 -234q158 113 440 234h58 q-208 -74 -498 -234zM-788 -274q190 139 538 274h78q-270 -85 -616 -274zM-786 -316q245 175 650 316h108q-356 -93 -758 -316zM-782 -356q293 214 772 356v40h106v1560h-106v40h144v-1640q-455 -99 -916 -356zM-768 -412q202 127 459 224.5t503 141.5v860h912l-368 -596 l368 -630h-1874zM-10 80v1480h66v-1480h-66z" />
<glyph unicode="&#xd0;" horiz-adv-x="1146" d="M40 826l368 596l-368 630h1874q-202 -127 -459 -224.5t-503 -141.5v-860h-912zM1012 0v1640q455 99 916 356q-293 -214 -772 -356v-1640h-144zM1174 1640q356 93 758 316q-245 -175 -650 -316h-108zM1318 1640q270 85 616 274q-190 -139 -538 -274h-78zM1440 1640 q208 74 498 234q-158 -113 -440 -234h-58zM1550 1640q160 64 392 194q-128 -104 -352 -194h-40zM1648 1640q130 59 296 154q-107 -84 -268 -154h-28zM1738 1640q113 55 204 110q-71 -61 -186 -110h-18zM1820 1640q42 24 122 72q-60 -52 -106 -72h-16zM1904 1640l40 20 l-30 -20h-10z" />
<glyph unicode="&#xd1;" horiz-adv-x="1146" d="M-798 1660l40 -20h-10q-18 10 -30 20zM-798 1794q166 -95 296 -154h-28q-161 70 -268 154zM-796 1712q80 -48 122 -72h-16q-46 20 -106 72zM-796 1750q91 -55 204 -110h-18q-115 49 -186 110zM-796 1834q232 -130 392 -194h-40q-224 90 -352 194zM-792 1874 q290 -160 498 -234h-58q-282 121 -440 234zM-788 1914q346 -189 616 -274h-78q-348 135 -538 274zM-786 1956q402 -223 758 -316h-108q-405 141 -650 316zM-782 1996q461 -257 916 -356v-1640h-144v1640q-479 142 -772 356zM-768 2052h1874l-368 -630l368 -596h-912v860 q-246 44 -503 141.5t-459 224.5z" />
<glyph unicode="&#xd2;" horiz-adv-x="1146" d="M40 826l368 596l-368 630h1874q-202 -127 -459 -224.5t-503 -141.5v-860h-912zM1012 0v1640q455 99 916 356q-293 -214 -772 -356v-40h-102v-1560h102v-40h-144zM1094 80v1480h62v-1480h-62zM1174 1640q356 93 758 316q-245 -175 -650 -316h-108zM1318 1640 q270 85 616 274q-190 -139 -538 -274h-78zM1440 1640q208 74 498 234q-158 -113 -440 -234h-58zM1550 1640q160 64 392 194q-128 -104 -352 -194h-40zM1648 1640q130 59 296 154q-107 -84 -268 -154h-28zM1738 1640q113 55 204 110q-71 -61 -186 -110h-18zM1820 1640 q42 24 122 72q-60 -52 -106 -72h-16zM1904 1640l40 20l-30 -20h-10z" />
<glyph unicode="&#xd3;" horiz-adv-x="1146" d="M-798 1660l40 -20h-10q-18 10 -30 20zM-798 1794q166 -95 296 -154h-28q-161 70 -268 154zM-796 1712q80 -48 122 -72h-16q-46 20 -106 72zM-796 1750q91 -55 204 -110h-18q-115 49 -186 110zM-796 1834q232 -130 392 -194h-40q-224 90 -352 194zM-792 1874 q290 -160 498 -234h-58q-282 121 -440 234zM-788 1914q346 -189 616 -274h-78q-348 135 -538 274zM-786 1956q402 -223 758 -316h-108q-405 141 -650 316zM-782 1996q461 -257 916 -356v-1640h-144v40h102v1560h-102v40q-479 142 -772 356zM-768 2052h1874l-368 -630 l368 -596h-912v860q-246 44 -503 141.5t-459 224.5zM-10 80v1480h62v-1480h-62z" />
<glyph unicode="&#xd4;" horiz-adv-x="720" d="M-10 0v1640q48 0 91 -1.5t117 -9t133.5 -21t127.5 -41t114 -64t76.5 -94t30.5 -129.5v-1660q-22 75 -69 136t-101.5 99.5t-123.5 67.5t-126.5 43t-119.5 22.5t-93.5 10t-56.5 1.5z" />
<glyph unicode="&#xd5;" horiz-adv-x="720" d="M40 360v1660q22 -75 69 -136t101.5 -99.5t123.5 -67.5t126.5 -43t119.5 -22.5t93.5 -10t56.5 -1.5v-1640q-48 0 -91 1.5t-117 9t-133.5 21t-127.5 41t-114 64t-76.5 94t-30.5 129.5z" />
<glyph unicode="&#xd6;" horiz-adv-x="1104" d="M-2 0v1640h1108v-1640h-1108zM38 752q0 -65 37.5 -106.5t124.5 -41.5q0 49 23 71.5t73 22.5q34 0 57 -39.5t25 -90.5h-100v-112h212q-8 -86 -92 -126q7 -21 33.5 -41.5t58.5 -20.5q7 -44 18.5 -72t41.5 -60q31 33 44.5 61.5t19.5 70.5q30 0 56.5 20.5t33.5 41.5 q-83 37 -92 126h208v112h-98q2 51 25.5 90.5t58.5 39.5q50 0 73 -23t23 -73q87 0 124.5 42.5t37.5 107.5q0 54 -18 93t-46.5 58.5t-55.5 28t-52 8.5q-93 0 -166 -112t-76 -260h-56q3 78 35.5 184.5t62.5 210.5t30 181q0 29 -4 57t-10 51.5t-16 48t-18.5 42t-22.5 38.5 t-23 33t-23.5 29t-21 24t-19.5 20.5t-14 14.5q-1 -1 -17.5 -19t-25.5 -28t-27 -33.5t-29.5 -42t-26.5 -47.5t-23.5 -56t-14.5 -61t-6 -69q0 -77 30 -181.5t62.5 -211.5t35.5 -185h-56q-3 148 -76 260t-166 112q-25 0 -52 -8.5t-55.5 -28t-46.5 -58.5t-18 -93z" />
<glyph unicode="&#xd7;" horiz-adv-x="1108" d="M-2 0v40h1112v-40h-1112zM-2 80v1480h1108v-1480h-1108zM-2 1600v40h1112v-40h-1112zM38 752q0 -65 37.5 -106.5t124.5 -41.5q0 49 23 71.5t73 22.5q34 0 57 -39.5t25 -90.5h-100v-112h212q-8 -86 -92 -126q7 -21 33.5 -41.5t58.5 -20.5q7 -44 18.5 -72t41.5 -60 q31 33 44.5 61.5t19.5 70.5q30 0 56.5 20.5t33.5 41.5q-83 37 -92 126h208v112h-98q2 51 25.5 90.5t58.5 39.5q50 0 73 -23t23 -73q87 0 124.5 42.5t37.5 107.5q0 54 -18 93t-46.5 58.5t-55.5 28t-52 8.5q-93 0 -166 -112t-76 -260h-56q3 78 35.5 184.5t62.5 210.5t30 181 q0 29 -4 57t-10 51.5t-16 48t-18.5 42t-22.5 38.5t-23 33t-23.5 29t-21 24t-19.5 20.5t-14 14.5q-1 -1 -17.5 -19t-25.5 -28t-27 -33.5t-29.5 -42t-26.5 -47.5t-23.5 -56t-14.5 -61t-6 -69q0 -77 30 -181.5t62.5 -211.5t35.5 -185h-56q-3 148 -76 260t-166 112 q-25 0 -52 -8.5t-55.5 -28t-46.5 -58.5t-18 -93z" />
<glyph unicode="&#xd8;" horiz-adv-x="974" d="M40 820q46 83 107 150.5t122 109.5t124.5 72.5t117.5 45t97 22.5t68 9l24 1q-2 11 -7.5 31t-25.5 75.5t-44.5 104.5t-68.5 106t-94 93h524v-1640h-524q50 36 93.5 91.5t69 109t44 101.5t25.5 78l8 30q-9 0 -25.5 1t-66.5 9t-99 22.5t-116.5 45.5t-126 72t-120 109 t-106.5 151zM372 820q0 -58 41 -99t99 -41t99 41t41 99t-41 99t-99 41t-99 -41t-41 -99z" />
<glyph unicode="&#xd9;" horiz-adv-x="974" d="M-10 0v1640h524q-50 -36 -93.5 -91.5t-69 -109t-44 -101.5t-25.5 -78l-8 -30q9 0 25 -1t66 -9t99 -22.5t116 -45.5t126 -72t120.5 -109t107.5 -151q-45 -83 -105.5 -150.5t-121.5 -109.5t-124.5 -72.5t-118 -45t-98 -22.5t-68.5 -9l-24 -1q2 -11 7.5 -31t25.5 -75.5 t44.5 -104.5t68.5 -106t94 -93h-524zM322 820q0 -58 41 -99t99 -41t99 41t41 99t-41 99t-99 41t-99 -41t-41 -99z" />
<glyph unicode="&#xda;" horiz-adv-x="974" d="M40 820q46 83 107 150.5t122 109.5t124.5 72.5t117.5 45t97 22.5t68 9l24 1q-2 11 -7.5 31t-25.5 75.5t-44.5 104.5t-68.5 106t-94 93h524v-40h-136v-1560h136v-40h-524q50 36 93.5 91.5t69 109t44 101.5t25.5 78l8 30q-9 0 -25.5 1t-66.5 9t-99 22.5t-116.5 45.5 t-126 72t-120 109t-106.5 151zM372 820q0 -58 41 -99t99 -41t99 41t41 99t-41 99t-99 41t-99 -41t-41 -99zM888 80v1480h96v-1480h-96z" />
<glyph unicode="&#xdb;" horiz-adv-x="974" d="M-10 0v40h136v1560h-136v40h524q-50 -36 -93.5 -91.5t-69 -109t-44 -101.5t-25.5 -78l-8 -30q9 0 25 -1t66 -9t99 -22.5t116 -45.5t126 -72t120.5 -109t107.5 -151q-45 -83 -105.5 -150.5t-121.5 -109.5t-124.5 -72.5t-118 -45t-98 -22.5t-68.5 -9l-24 -1q2 -11 7.5 -31 t25.5 -75.5t44.5 -104.5t68.5 -106t94 -93h-524zM-10 80v1480h96v-1480h-96zM322 820q0 -58 41 -99t99 -41t99 41t41 99t-41 99t-99 41t-99 -41t-41 -99z" />
<glyph unicode="&#xdc;" horiz-adv-x="974" d="M40 820q46 83 107 151.5t122 110.5t124.5 74t117.5 47.5t97 24.5t68 10l24 2q-2 11 -7.5 30t-25.5 73t-44.5 102t-68.5 103.5t-94 91.5h524v-40h-432q40 -34 75 -87t56.5 -103.5t37.5 -96.5t23 -75l6 -28q-9 0 -26 -2t-68.5 -11.5t-101.5 -24t-118.5 -44.5t-127.5 -69.5 t-120 -101.5t-104 -137q42 -75 102 -137t121.5 -101.5t126 -69.5t120.5 -45t100.5 -24t69.5 -11l26 -2q-2 -11 -7 -29.5t-22 -71.5t-38 -100t-56 -101t-75 -88h432v-40h-524q50 36 93.5 90.5t69 106.5t44 98.5t25.5 75.5l8 29q-9 0 -25.5 1.5t-66.5 10.5t-99 24.5 t-116.5 47.5t-126 74t-120 110.5t-106.5 151.5zM136 820q37 67 94 122.5t118 90.5t126.5 62t123 40.5t104 22t73.5 10.5l27 2q-2 11 -6 30t-19 72.5t-31.5 100.5t-44 101t-57.5 86h340v-1480h-340q47 52 86.5 149.5t55.5 168.5l16 72q-10 0 -28 1.5t-72 10.5t-106.5 22.5 t-122 40.5t-128 62t-116 90.5t-93.5 122.5zM372 820q0 -58 41 -99t99 -41t99 41t41 99t-41 99t-99 41t-99 -41t-41 -99z" />
<glyph unicode="&#xdd;" horiz-adv-x="974" d="M-10 0v40h432q-40 34 -75 87t-56.5 103.5t-37.5 96.5t-23 75l-6 28q10 0 26.5 2t68.5 11.5t102.5 24t118.5 44.5t127.5 69.5t120 101.5t102.5 137q-43 75 -103 137t-122 101.5t-126 69.5t-120 45t-100 24t-69 11l-26 2q2 11 7 29.5t22 71.5t38 100t56 101t75 88h-432v40 h524q-50 -36 -93.5 -90.5t-69 -106.5t-44 -98.5t-25.5 -75.5l-8 -29q9 0 25 -1.5t66 -10.5t99 -24.5t116 -47.5t126 -74t120.5 -110.5t107.5 -151.5q-45 -83 -105.5 -151.5t-121.5 -110.5t-124.5 -74t-118 -47.5t-98 -24.5t-68.5 -10l-24 -2q2 -11 7.5 -30t25.5 -73 t44.5 -102t68.5 -103.5t94 -91.5h-524zM-10 80v1480h340q-47 -52 -86.5 -149.5t-55.5 -168.5l-16 -72q10 0 28 -1.5t71.5 -10.5t105.5 -22.5t121.5 -40.5t128.5 -62t116.5 -90.5t94.5 -122.5q-36 -67 -92.5 -122.5t-117.5 -90.5t-126.5 -62t-123.5 -40.5t-104.5 -22 t-73.5 -10.5l-28 -2q2 -11 6 -30t19 -72.5t31.5 -100.5t44 -101t57.5 -86h-340zM322 820q0 -58 41 -99t99 -41t99 41t41 99t-41 99t-99 41t-99 -41t-41 -99z" />
<glyph unicode="&#xde;" horiz-adv-x="346" d="M40 0v1640h316v-1640h-316zM118 204q0 -34 25 -59t59 -25q25 0 50 18l-116 116q-18 -25 -18 -50zM118 1430q0 -28 16 -50l118 118q-22 16 -50 16q-34 0 -59 -25t-25 -59zM152 272l118 -118q16 22 16 50q0 34 -25 59t-59 25q-28 0 -50 -16zM152 1364q25 -18 50 -18 q34 0 59 25t25 59q0 25 -18 50z" />
<glyph unicode="&#xdf;" horiz-adv-x="346" d="M-10 0v1640h316v-1640h-316zM60 204q0 -28 16 -50l118 118q-22 16 -50 16q-34 0 -59 -25t-25 -59zM60 1430q0 -34 25 -59t59 -25q25 0 50 18l-116 116q-18 -25 -18 -50zM94 138q25 -18 50 -18q34 0 59 25t25 59q0 25 -18 50zM94 1498l118 -118q16 22 16 50q0 34 -25 59 t-59 25q-28 0 -50 -16z" />
<glyph unicode="&#xe0;" horiz-adv-x="406" d="M40 0v1640h376v-40h-336v-1560h336v-40h-376zM120 80v1480h296v-1480h-296zM184 204q0 -34 25 -59t59 -25q25 0 50 18l-116 116q-18 -25 -18 -50zM184 1430q0 -28 16 -50l118 118q-22 16 -50 16q-34 0 -59 -25t-25 -59zM218 272l118 -118q16 22 16 50q0 34 -25 59t-59 25 q-28 0 -50 -16zM218 1364q25 -18 50 -18q34 0 59 25t25 59q0 25 -18 50z" />
<glyph unicode="&#xe1;" horiz-adv-x="406" d="M-10 0v40h336v1560h-336v40h376v-1640h-376zM-10 80v1480h296v-1480h-296zM54 204q0 -28 16 -50l118 118q-22 16 -50 16q-34 0 -59 -25t-25 -59zM54 1430q0 -34 25 -59t59 -25q25 0 50 18l-116 116q-18 -25 -18 -50zM88 138q25 -18 50 -18q34 0 59 25t25 59q0 25 -18 50z M88 1498l118 -118q16 22 16 50q0 34 -25 59t-59 25q-28 0 -50 -16z" />
<glyph unicode="&#xe2;" horiz-adv-x="788" d="M40 820q0 99 70.5 171t169.5 73v124h60q0 100 70.5 171t171.5 73v208h216v-40h-136v-1560h136v-40h-216v218q-99 2 -169.5 72.5t-72.5 169.5h-60v116q-99 1 -169.5 73t-70.5 171zM96 816q0 -57 39.5 -96.5t96.5 -39.5t96.5 39.5t39.5 96.5t-39.5 96.5t-96.5 39.5 t-96.5 -39.5t-39.5 -96.5zM416 416q0 -40 28 -68t68 -28t68 28t28 68t-28 68t-68 28t-68 -28t-28 -68zM416 1236q0 -40 28 -68t68 -28t68 28t28 68t-28 68t-68 28t-68 -28t-28 -68zM702 80v1480h96v-1480h-96z" />
<glyph unicode="&#xe3;" horiz-adv-x="788" d="M-10 0v40h136v1560h-136v40h216v-208q101 -2 171.5 -73t70.5 -171h60v-124q99 -1 169.5 -73t70.5 -171t-70.5 -171t-169.5 -73v-116h-60q-2 -99 -72.5 -169.5t-169.5 -72.5v-218h-216zM-10 80v1480h96v-1480h-96zM180 416q0 -40 28 -68t68 -28t68 28t28 68t-28 68t-68 28 t-68 -28t-28 -68zM180 1236q0 -40 28 -68t68 -28t68 28t28 68t-28 68t-68 28t-68 -28t-28 -68zM420 816q0 -57 39.5 -96.5t96.5 -39.5t96.5 39.5t39.5 96.5t-39.5 96.5t-96.5 39.5t-96.5 -39.5t-39.5 -96.5z" />
<glyph unicode="&#xe4;" horiz-adv-x="1130" d="M-10 0v1640h1150v-1640h-1150zM30 984l332 -240l-128 -390l332 240l332 -240l-128 390l332 240h-410l-126 390l-126 -390h-410zM94 962l452 -120l-164 -86zM268 404l298 418v-202zM456 972l110 346v-456zM586 822l160 -68l118 -350zM586 862l94 100h358z" />
<glyph unicode="&#xe5;" horiz-adv-x="1130" d="M-10 0v40h1150v-40h-1150zM-10 80v1480h1150v-1480h-1150zM-10 1600v40h1150v-40h-1150zM30 984l332 -240l-128 -390l332 240l332 -240l-128 390l332 240h-410l-126 390l-126 -390h-410zM94 962l452 -120l-164 -86zM268 404l298 418v-202zM456 972l110 346v-456zM586 822 l160 -68l118 -350zM586 862l94 100h358z" />
<glyph unicode="&#xe6;" horiz-adv-x="136" d="M-10 0v1640h156v-1640h-156z" />
<glyph unicode="&#xe7;" horiz-adv-x="136" d="M-10 0v40h156v-40h-156zM-10 80v1480h156v-1480h-156zM-10 1600v40h156v-40h-156z" />
<glyph unicode="&#xe8;" horiz-adv-x="296" d="M-10 0v1640h316v-1640h-316z" />
<glyph unicode="&#xe9;" horiz-adv-x="296" d="M-10 0v40h316v-40h-316zM-10 80v1480h316v-1480h-316zM-10 1600v40h316v-40h-316z" />
<glyph unicode="&#xea;" horiz-adv-x="788" d="M40 820q0 99 70.5 171t169.5 73v124h60q0 100 70.5 171t171.5 73v208h216v-1640h-216v218q-99 2 -169.5 72.5t-72.5 169.5h-60v116q-99 1 -169.5 73t-70.5 171zM96 816q0 -57 39.5 -96.5t96.5 -39.5t96.5 39.5t39.5 96.5t-39.5 96.5t-96.5 39.5t-96.5 -39.5t-39.5 -96.5z M416 416q0 -40 28 -68t68 -28t68 28t28 68t-28 68t-68 28t-68 -28t-28 -68zM416 1236q0 -40 28 -68t68 -28t68 28t28 68t-28 68t-68 28t-68 -28t-28 -68z" />
<glyph unicode="&#xeb;" horiz-adv-x="796" d="M-2 0v1640h216v-208q101 -2 171.5 -73t70.5 -171h60v-124q99 -1 169.5 -73t70.5 -171t-70.5 -171t-169.5 -73v-116h-60q-2 -99 -72.5 -169.5t-169.5 -72.5v-218h-216zM188 416q0 -40 28 -68t68 -28t68 28t28 68t-28 68t-68 28t-68 -28t-28 -68zM188 1236q0 -40 28 -68 t68 -28t68 28t28 68t-28 68t-68 28t-68 -28t-28 -68zM428 816q0 -57 39.5 -96.5t96.5 -39.5t96.5 39.5t39.5 96.5t-39.5 96.5t-96.5 39.5t-96.5 -39.5t-39.5 -96.5z" />
<glyph unicode="&#xec;" horiz-adv-x="358" d="M40 98v1446q40 0 68 28t28 68h232v-1640h-232q0 41 -28 69.5t-68 28.5z" />
<glyph unicode="&#xed;" horiz-adv-x="358" d="M-10 0v1640h232q0 -40 28 -68t68 -28v-1446q-40 0 -68 -28.5t-28 -69.5h-232z" />
<glyph unicode="&#xee;" horiz-adv-x="358" d="M40 98v1446q40 0 68 28t28 68h232v-40h-200q0 -39 -26.5 -65.5t-65.5 -26.5v-1374q39 0 65.5 -27.5t26.5 -66.5h200v-40h-232q0 41 -28 69.5t-68 28.5zM116 168v1306q36 0 61 25t25 61h166v-1480h-166q0 36 -25 62t-61 26z" />
<glyph unicode="&#xef;" horiz-adv-x="358" d="M-10 0v40h200q0 39 26.5 66.5t65.5 27.5v1374q-39 0 -65.5 26.5t-26.5 65.5h-200v40h232q0 -40 28 -68t68 -28v-1446q-40 0 -68 -28.5t-28 -69.5h-232zM-10 80v1480h166q0 -36 25 -61t61 -25v-1306q-36 0 -61 -26t-25 -62h-166z" />
<glyph unicode="&#xf0;" horiz-adv-x="358" d="M40 98v1446q40 0 68 28t28 68h232v-1640h-232q0 41 -28 69.5t-68 28.5zM128 204q0 -34 25 -59t59 -25q25 0 50 18l-116 116q-18 -25 -18 -50zM128 1430q0 -28 16 -50l118 118q-22 16 -50 16q-34 0 -59 -25t-25 -59zM162 272l118 -118q16 22 16 50q0 34 -25 59t-59 25 q-28 0 -50 -16zM162 1364q25 -18 50 -18q34 0 59 25t25 59q0 25 -18 50z" />
<glyph unicode="&#xf1;" horiz-adv-x="358" d="M-10 0v1640h232q0 -40 28 -68t68 -28v-1446q-40 0 -68 -28.5t-28 -69.5h-232zM62 204q0 -28 16 -50l118 118q-22 16 -50 16q-34 0 -59 -25t-25 -59zM62 1430q0 -34 25 -59t59 -25q25 0 50 18l-116 116q-18 -25 -18 -50zM96 138q25 -18 50 -18q34 0 59 25t25 59 q0 25 -18 50zM96 1498l118 -118q16 22 16 50q0 34 -25 59t-59 25q-28 0 -50 -16z" />
<glyph unicode="&#xf2;" horiz-adv-x="216" d="M-10 0v1640h236v-1640h-236z" />
<glyph unicode="&#xf3;" horiz-adv-x="216" d="M-10 0v40h236v-40h-236zM-10 80v1480h236v-1480h-236zM-10 1600v40h236v-40h-236z" />
<glyph unicode="&#xf4;" horiz-adv-x="438" d="M40 98v1446q40 0 68 28t28 68h312v-40h-280q0 -39 -26.5 -65.5t-65.5 -26.5v-1374q39 0 65.5 -27.5t26.5 -66.5h280v-40h-312q0 41 -28 69.5t-68 28.5zM116 168v1306q36 0 61 25t25 61h246v-1480h-246q0 36 -25 62t-61 26zM228 204q0 -34 25 -59t59 -25q25 0 50 18 l-116 116q-18 -25 -18 -50zM228 1430q0 -28 16 -50l118 118q-22 16 -50 16q-34 0 -59 -25t-25 -59zM262 272l118 -118q16 22 16 50q0 34 -25 59t-59 25q-28 0 -50 -16zM262 1364q25 -18 50 -18q34 0 59 25t25 59q0 25 -18 50z" />
<glyph unicode="&#xf5;" horiz-adv-x="438" d="M-10 0v40h280q0 39 26.5 66.5t65.5 27.5v1374q-39 0 -65.5 26.5t-26.5 65.5h-280v40h312q0 -40 28 -68t68 -28v-1446q-40 0 -68 -28.5t-28 -69.5h-312zM-10 80v1480h246q0 -36 25 -61t61 -25v-1306q-36 0 -61 -26t-25 -62h-246zM42 204q0 -28 16 -50l118 118 q-22 16 -50 16q-34 0 -59 -25t-25 -59zM42 1430q0 -34 25 -59t59 -25q25 0 50 18l-116 116q-18 -25 -18 -50zM76 138q25 -18 50 -18q34 0 59 25t25 59q0 25 -18 50zM76 1498l118 -118q16 22 16 50q0 34 -25 59t-59 25q-28 0 -50 -16z" />
<glyph unicode="&#xf6;" horiz-adv-x="296" d="M-10 0v1640h316v-1640h-316z" />
<glyph unicode="&#xf7;" horiz-adv-x="632" d="M-10 0v1640h652v-1640h-652zM36 1138q0 -27 17.5 -45.5t44.5 -18.5q34 0 52 24h126q-8 -186 -8 -306q0 -106 4.5 -258t9.5 -251l4 -99l28 -72l32 72q18 370 18 608q0 53 -2.5 129.5t-5.5 126.5l-2 50h126q18 -24 50 -24q27 0 45.5 18.5t18.5 45.5t-18.5 45.5t-45.5 18.5 q-30 0 -50 -26h-126v206q24 18 24 52q0 27 -17.5 45.5t-44.5 18.5t-45.5 -18.5t-18.5 -45.5q0 -34 24 -52v-206h-126q-20 26 -52 26q-27 0 -44.5 -18.5t-17.5 -45.5z" />
<glyph unicode="&#xf8;" horiz-adv-x="296" d="M-10 0v1640h316v-1640h-316z" />
<glyph unicode="&#xf9;" horiz-adv-x="1450" d="M-10 0v1640h1470v-1640h-1470zM46 820q0 -78 60.5 -138t137.5 -60q122 0 302 144l-54 42q-161 -122 -248 -122q-53 0 -92.5 42.5t-39.5 91.5q0 54 37.5 93t94.5 39q45 0 105.5 -29.5t114.5 -71.5t101.5 -84t76.5 -71l28 -30l44 50q-11 12 -30 32.5t-76 72.5t-111 92 t-125 72.5t-128 32.5q-80 0 -139 -62t-59 -136zM526 340q0 -80 62 -139t138 -59q79 0 138.5 60t59.5 138q0 118 -144 298l-44 -50q58 -73 90 -138.5t32 -109.5q0 -53 -38.5 -93.5t-93.5 -40.5q-56 0 -95 39t-39 95q0 44 29.5 104t71.5 114t84 101.5t71 76.5l30 28l-48 44 q-12 -11 -32.5 -30.5t-73 -76.5t-92.5 -111.5t-73 -124.5t-33 -125zM526 1300q0 -24 4 -48t9 -42t17 -41.5t18.5 -36.5t24 -37.5t23.5 -32.5t26 -33.5t24 -30.5l42 54q-122 156 -122 248q0 56 39 95t95 39q47 0 89.5 -41t42.5 -93q0 -49 -29.5 -110.5t-72 -115t-85 -100 t-71.5 -73.5l-30 -27l52 -44q12 12 32.5 32t72.5 79t92 114t72.5 124t32.5 121q0 82 -58 140t-140 58q-83 0 -141.5 -58t-58.5 -140zM634 820q49 -43 92 -92q49 57 90 92q-49 43 -92 92q-49 -57 -90 -92zM736 924q42 -43 70.5 -72t84.5 -77t102 -77.5t104 -52.5t109 -23 q82 0 140 58t58 140t-58 140t-140 58q-120 0 -300 -144l48 -44q74 58 141 90t111 32q65 0 98.5 -39t33.5 -93q0 -60 -36 -97t-96 -37q-51 0 -111 28t-122.5 80t-101 88.5t-91.5 91.5z" />
<glyph unicode="&#xfa;" horiz-adv-x="1450" d="M-10 0v40h1470v-40h-1470zM-10 80v1480h1470v-1480h-1470zM-10 1600v40h1470v-40h-1470zM46 820q0 -78 60.5 -138t137.5 -60q122 0 302 144l-54 42q-161 -122 -248 -122q-53 0 -92.5 42.5t-39.5 91.5q0 54 37.5 93t94.5 39q45 0 105.5 -29.5t114.5 -71.5t101.5 -84 t76.5 -71l28 -30l44 50q-11 12 -30 32.5t-76 72.5t-111 92t-125 72.5t-128 32.5q-80 0 -139 -62t-59 -136zM526 340q0 -80 62 -139t138 -59q79 0 138.5 60t59.5 138q0 118 -144 298l-44 -50q58 -73 90 -138.5t32 -109.5q0 -53 -38.5 -93.5t-93.5 -40.5q-56 0 -95 39t-39 95 q0 44 29.5 104t71.5 114t84 101.5t71 76.5l30 28l-48 44q-12 -11 -32.5 -30.5t-73 -76.5t-92.5 -111.5t-73 -124.5t-33 -125zM526 1300q0 -24 4 -48t9 -42t17 -41.5t18.5 -36.5t24 -37.5t23.5 -32.5t26 -33.5t24 -30.5l42 54q-122 156 -122 248q0 56 39 95t95 39 q47 0 89.5 -41t42.5 -93q0 -49 -29.5 -110.5t-72 -115t-85 -100t-71.5 -73.5l-30 -27l52 -44q12 12 32.5 32t72.5 79t92 114t72.5 124t32.5 121q0 82 -58 140t-140 58q-83 0 -141.5 -58t-58.5 -140zM634 820q49 -43 92 -92q49 57 90 92q-49 43 -92 92q-49 -57 -90 -92z M736 924q42 -43 70.5 -72t84.5 -77t102 -77.5t104 -52.5t109 -23q82 0 140 58t58 140t-58 140t-140 58q-120 0 -300 -144l48 -44q74 58 141 90t111 32q65 0 98.5 -39t33.5 -93q0 -60 -36 -97t-96 -37q-51 0 -111 28t-122.5 80t-101 88.5t-91.5 91.5z" />
<glyph unicode="&#xfb;" horiz-adv-x="1742" d="M-10 0v40h156l696 780l-696 780h-156v40h180l702 -786l700 786h180v-40h-156l-696 -780l696 -780h156v-40h-180l-700 786l-702 -786h-180zM-10 80v1480h136l660 -740l-660 -740h-136zM416 820q0 -45 32.5 -77.5t77.5 -32.5t77.5 32.5t32.5 77.5t-32.5 77.5t-77.5 32.5 t-77.5 -32.5t-32.5 -77.5zM956 820l660 740h136v-1480h-138zM1106 820q0 -45 32.5 -77.5t77.5 -32.5t77.5 32.5t32.5 77.5t-32.5 77.5t-77.5 32.5t-77.5 -32.5t-32.5 -77.5z" />
<glyph unicode="&#xfc;" horiz-adv-x="1742" d="M-10 0v1640h180l702 -786l700 786h180v-1640h-180l-700 786l-702 -786h-180zM416 820q0 -45 32.5 -77.5t77.5 -32.5t77.5 32.5t32.5 77.5t-32.5 77.5t-77.5 32.5t-77.5 -32.5t-32.5 -77.5zM1106 820q0 -45 32.5 -77.5t77.5 -32.5t77.5 32.5t32.5 77.5t-32.5 77.5 t-77.5 32.5t-77.5 -32.5t-32.5 -77.5z" />
<glyph unicode="&#xfd;" horiz-adv-x="1402" d="M-10 0v1640h1422v-1640h-1422zM50 644q0 -54 40.5 -91t99.5 -37q111 0 238 98q105 80 160.5 132.5t55.5 81.5q0 33 -60.5 95.5t-153.5 118.5q-84 50 -139 74t-101 24q-59 0 -99.5 -37.5t-40.5 -90.5q0 -44 15.5 -81.5t31 -62.5t15.5 -40q0 -13 -15.5 -38.5t-31 -64 t-15.5 -81.5zM388 296q0 -59 36 -100.5t90 -41.5q45 0 83 15.5t63 31t40 15.5q14 0 39.5 -15.5t63.5 -31t83 -15.5q52 0 90 39.5t38 98.5q0 108 -108 246q-81 105 -134 158.5t-82 53.5q-28 0 -92 -68.5t-114 -151.5q-49 -82 -72.5 -134t-23.5 -100zM388 1362q0 -86 100 -236 q65 -99 124 -159.5t94 -60.5q56 0 212 228q96 141 96 232q0 58 -38 97t-90 39q-46 0 -83.5 -15.5t-62 -31t-40.5 -15.5q-15 0 -40 15.5t-63 31t-83 15.5q-54 0 -90 -40.5t-36 -99.5zM756 828q0 -32 66 -94.5t160 -119.5q84 -51 135 -74.5t99 -23.5q55 0 95.5 37.5t40.5 88.5 q0 46 -15.5 83.5t-31 62.5t-15.5 40t15.5 40t31 63t15.5 83q0 54 -40.5 90t-99.5 36q-105 0 -234 -98q-222 -167 -222 -214z" />
<glyph unicode="&#xfe;" horiz-adv-x="1402" d="M-10 0v40h1422v-40h-1422zM-10 80v1480h1422v-1480h-1422zM-10 1600v40h1422v-40h-1422zM50 644q0 -54 40.5 -91t99.5 -37q111 0 238 98q105 80 160.5 132.5t55.5 81.5q0 33 -60.5 95.5t-153.5 118.5q-84 50 -139 74t-101 24q-59 0 -99.5 -37.5t-40.5 -90.5 q0 -44 15.5 -81.5t31 -62.5t15.5 -40q0 -13 -15.5 -38.5t-31 -64t-15.5 -81.5zM388 296q0 -59 36 -100.5t90 -41.5q45 0 83 15.5t63 31t40 15.5q14 0 39.5 -15.5t63.5 -31t83 -15.5q52 0 90 39.5t38 98.5q0 108 -108 246q-81 105 -134 158.5t-82 53.5q-28 0 -92 -68.5 t-114 -151.5q-49 -82 -72.5 -134t-23.5 -100zM388 1362q0 -86 100 -236q65 -99 124 -159.5t94 -60.5q56 0 212 228q96 141 96 232q0 58 -38 97t-90 39q-46 0 -83.5 -15.5t-62 -31t-40.5 -15.5q-15 0 -40 15.5t-63 31t-83 15.5q-54 0 -90 -40.5t-36 -99.5zM756 828 q0 -32 66 -94.5t160 -119.5q84 -51 135 -74.5t99 -23.5q55 0 95.5 37.5t40.5 88.5q0 46 -15.5 83.5t-31 62.5t-15.5 40t15.5 40t31 63t15.5 83q0 54 -40.5 90t-99.5 36q-105 0 -234 -98q-222 -167 -222 -214z" />
<glyph unicode="&#xff;" horiz-adv-x="296" d="M-10 0v40h316v-40h-316zM-10 80v1480h316v-1480h-316zM-10 1600v40h316v-40h-316z" />
<glyph unicode="&#x2000;" horiz-adv-x="1026" />
<glyph unicode="&#x2001;" horiz-adv-x="2052" />
<glyph unicode="&#x2002;" horiz-adv-x="1026" />
<glyph unicode="&#x2003;" horiz-adv-x="2052" />
<glyph unicode="&#x2004;" horiz-adv-x="684" />
<glyph unicode="&#x2005;" horiz-adv-x="513" />
<glyph unicode="&#x2006;" horiz-adv-x="342" />
<glyph unicode="&#x2007;" horiz-adv-x="342" />
<glyph unicode="&#x2008;" horiz-adv-x="256" />
<glyph unicode="&#x2009;" horiz-adv-x="410" />
<glyph unicode="&#x200a;" horiz-adv-x="114" />
<glyph unicode="&#x2010;" horiz-adv-x="690" d="M-10 0v1640h710v-1640h-710zM48 780h594v192h-594v-192z" />
<glyph unicode="&#x2011;" horiz-adv-x="690" d="M-10 0v1640h710v-1640h-710zM48 780h594v192h-594v-192z" />
<glyph unicode="&#x2012;" horiz-adv-x="690" d="M-10 0v1640h710v-1640h-710zM48 780h594v192h-594v-192z" />
<glyph unicode="&#x2013;" horiz-adv-x="1004" d="M-10 0v1640h1024v-1640h-1024zM74 780h856v192h-856v-192z" />
<glyph unicode="&#x2014;" horiz-adv-x="2028" d="M-10 0v1640h2048v-1640h-2048zM157 780h1714v192h-1714v-192z" />
<glyph unicode="&#x2018;" horiz-adv-x="296" d="M-10 0v1640h316v-1640h-316zM50 1208h196v192h-76v120l-120 -120v-192z" />
<glyph unicode="&#x2019;" horiz-adv-x="296" d="M-10 0v1640h316v-1640h-316zM50 1328h76l2 -120l118 120v192h-196v-192z" />
<glyph unicode="&#x201c;" horiz-adv-x="296" d="M-10 0v40h316v-40h-316zM-10 80v1480h316v-1480h-316zM-10 1600v40h316v-40h-316zM50 1208h196v192h-76v120l-120 -120v-192z" />
<glyph unicode="&#x201d;" horiz-adv-x="296" d="M-10 0v40h316v-40h-316zM-10 80v1480h316v-1480h-316zM-10 1600v40h316v-40h-316zM50 1328h76l2 -120l118 120v192h-196v-192z" />
<glyph unicode="&#x202f;" horiz-adv-x="410" />
<glyph unicode="&#x205f;" horiz-adv-x="513" />
<glyph unicode="&#x25fc;" horiz-adv-x="1640" d="M0 0v1640h1640v-1640h-1640z" />
</font>
</defs>
</svg>
